<svg id="_18_" data-name="18+" xmlns="http://www.w3.org/2000/svg" width="60" height="60" viewBox="0 0 60 60">
  <defs>
    <style>
      .cls-1 {
        fill: #b90c0c;
      }

      .cls-2 {
        fill: #fff;
        fill-rule: evenodd;
      }
    </style>
  </defs>
  <circle class="cls-1" cx="30" cy="30" r="30"/>
  <path id="_18" data-name="+18" class="cls-2" d="M949.012,5735.07h-2.6v5.58h-5.286V5743h5.286v6.05h2.6V5743h5.273v-2.35h-5.273v-5.58Zm7.439,15.9h8.516v-1.66l-2.953-.37v-17.16l-5.616,1.21v1.62l3.019-.05v14.38l-2.966.37v1.66Zm20.695-18.09a6.106,6.106,0,0,0-4.133-1.38,6,6,0,0,0-4.12,1.38,4.939,4.939,0,0,0-1.562,3.91,4.361,4.361,0,0,0,.817,2.63,4.879,4.879,0,0,0,2.255,1.68,5.611,5.611,0,0,0-2.637,1.82,4.479,4.479,0,0,0-.976,2.86,4.974,4.974,0,0,0,1.714,4.07,7.993,7.993,0,0,0,9.038,0,4.948,4.948,0,0,0,1.733-4.07,4.428,4.428,0,0,0-1-2.86,5.743,5.743,0,0,0-2.657-1.82,5.045,5.045,0,0,0,2.281-1.68,4.266,4.266,0,0,0,.844-2.63A4.876,4.876,0,0,0,977.146,5732.88Zm-1.47,15.4a4.213,4.213,0,0,1-5.293.01,3.326,3.326,0,0,1-1-2.56,3.459,3.459,0,0,1,3.625-3.62,3.616,3.616,0,0,1,2.637,1.02,3.474,3.474,0,0,1,1.041,2.6A3.285,3.285,0,0,1,975.676,5748.28Zm-0.4-9.09a3.311,3.311,0,0,1-4.5,0,3.231,3.231,0,0,1-.857-2.35,3.347,3.347,0,0,1,.85-2.39,2.94,2.94,0,0,1,2.235-.91,2.988,2.988,0,0,1,2.248.94,3.282,3.282,0,0,1,.89,2.36A3.2,3.2,0,0,1,975.281,5739.19Z" transform="translate(-931 -5712)"/>
</svg>
