<?xml version="1.0" encoding="utf-8"?>
<!-- Generator: Adobe Illustrator 19.2.1, SVG Export Plug-In . SVG Version: 6.00 Build 0)  -->
<svg version="1.1" id="Layer_1" xmlns="http://www.w3.org/2000/svg" xmlns:xlink="http://www.w3.org/1999/xlink" x="0px" y="0px"
	 viewBox="0 0 232.7 80.3" style="enable-background:new 0 0 232.7 80.3;" xml:space="preserve">
<style type="text/css">
	.st0{fill:#FFFFFF;}
</style>
<g>
	<path class="st0" d="M123.9,70.6c-0.2,0.4-0.5,0.6-1,0.8c-0.5,0.1-1.3,0.2-2.3,0.3l-0.2,0V73h14.7c2.1,0,4-0.3,5.7-1
		c1.8-0.6,3.3-1.6,4.5-2.7c1.3-1.2,2.2-2.5,2.9-4.1c0.7-1.6,1-3.3,1-5.1c0-1.9-0.3-3.6-1-5.3c-0.7-1.6-1.6-3.1-2.8-4.2
		c-1.2-1.2-2.7-2.1-4.3-2.8c-1.7-0.6-3.5-1-5.5-1h-15.3v1.3l0.2,0c1.3,0.1,2.2,0.3,2.8,0.6c0.5,0.3,0.8,0.8,0.8,1.7v18.4
		C124.2,69.6,124.1,70.2,123.9,70.6 M139.5,48.8c0.6,0.2,1.2,0.5,1.7,0.8c0.9,0.6,1.7,1.4,2.4,2.4c0.7,1,1.2,2.2,1.5,3.6
		c0.3,1.4,0.5,2.9,0.5,4.6c0,2.3-0.4,4.3-1.1,6c-0.7,1.6-1.7,2.9-2.9,3.8c-0.9,0.6-1.8,1.1-2.9,1.4c1.1-0.6,2.1-1.3,2.8-2.1
		c1.1-1.1,1.9-2.4,2.4-3.9c0.5-1.5,0.8-3.2,0.8-5.1c0-5.7-1.9-9.6-5.6-11.7C139.2,48.7,139.3,48.8,139.5,48.8 M129.2,53.3
		c0-1.6,0-2.7,0.1-3.3c0.1-0.6,0.3-1,0.8-1.3c0.4-0.3,1.2-0.5,2.3-0.5c1.6,0,3.1,0.2,4.3,0.5c1.2,0.4,2.3,1,3.3,1.8
		c2.5,2.1,3.8,5.4,3.8,9.7c0,1.4-0.1,2.8-0.4,3.9c-0.3,1.2-0.7,2.2-1.4,3.1c-0.6,0.9-1.5,1.8-2.6,2.6c-0.9,0.7-1.9,1.1-2.9,1.4
		c-1,0.3-2.2,0.4-3.5,0.4c-1.2,0-2.1-0.1-2.6-0.3c-0.5-0.2-0.8-0.5-0.9-1c-0.1-0.5-0.2-1.2-0.2-2.3V53.3z M125.6,49.1
		c0.3,0.6,0.4,1.6,0.4,3V69c0,1-0.2,1.7-0.5,2.1c-0.2,0.3-0.6,0.5-1.1,0.6l0.2-0.2c0.2-0.2,0.3-0.6,0.4-1c0.1-0.4,0.1-1,0.1-1.8
		V50.9c0-0.8-0.1-1.5-0.3-1.9c-0.1-0.3-0.3-0.5-0.5-0.7C125,48.4,125.4,48.7,125.6,49.1 M222,48.2l0.2,0c1.2,0.1,2.1,0.3,2.7,0.8
		c0.6,0.5,1.1,1.2,1.3,2.3c0.3,1.1,0.4,2.6,0.4,4.4v8.4c0,1.6-0.3,3-1,4.1c-0.6,1.1-1.5,2-2.7,2.5c-1.1,0.6-2.5,0.8-4,0.8
		c-1.4,0-2.7-0.2-3.8-0.7c-1.1-0.5-1.9-1.2-2.5-2.2c-0.6-0.9-0.9-2.1-0.9-3.4V50.8c0-0.8,0.1-1.4,0.4-1.7c0.2-0.3,0.6-0.6,1-0.7
		c0.5-0.1,1.2-0.2,2.2-0.3l0.2,0v-1.3h-12.8v1.3l0.2,0c1.1,0.1,2,0.2,2.5,0.3c0.5,0.1,0.8,0.3,1.1,0.7c0.3,0.4,0.4,1,0.4,1.9v13.9
		c0,1.1,0.1,2.1,0.3,2.9c0.2,0.8,0.6,1.6,1.2,2.3c1.9,2.2,4.9,3.4,8.8,3.4c1.7,0,3.2-0.2,4.4-0.6c1.3-0.4,2.4-1,3.4-1.8
		c0.9-0.8,1.7-1.7,2.1-2.8c0.5-1.1,0.7-2.3,0.7-3.6v-9.5c0-1.4,0.1-2.7,0.3-3.7c0.2-1,0.5-1.7,1-2.3c0.5-0.6,1.3-0.9,2.3-1.1l0.2,0
		v-1.3H222V48.2z M209.6,70c-1.2-1.1-1.8-2.7-1.8-4.8V50.6c0-1.2-0.3-2-0.9-2.5c1.2,0.1,1.8,0.8,1.8,2.3v14.6c0,1.1,0.2,2.1,0.5,3
		c0.3,0.9,0.8,1.6,1.4,2.2c0.6,0.6,1.2,1.1,1.9,1.5c0.2,0.1,0.4,0.2,0.6,0.3C211.6,71.5,210.5,70.8,209.6,70 M227.9,48.2
		c-0.3,0.3-0.5,0.6-0.7,0.9c-0.2,0.3-0.3,0.7-0.4,1.1c-0.3-0.9-0.8-1.6-1.5-2H227.9z M80.2,71.2c-0.5,0.2-1.1,0.3-2.1,0.4l-0.2,0V73
		h11.2v-1.3l-0.1,0c-1-0.2-1.7-0.5-2.2-0.9c-0.5-0.4-0.9-1.2-1.4-2.4L77,46.7l0-0.1h-1.8l-4.6,1.6v1.2l0.2,0
		c0.7,0.1,1.2,0.2,1.5,0.4c0.3,0.2,0.6,0.5,0.9,1l-6.3,16.1c-1.1,2.9-2.6,4.5-4.4,4.8l-0.1,0V73h8.8v-1.3l-0.2,0
		c-0.9,0-1.5-0.3-2-0.9c-0.5-0.6-0.7-1.3-0.7-2c0-0.8,0.2-1.6,0.5-2.4l1.2-3h8.4l2,5.1c0.3,0.8,0.5,1.4,0.5,1.8
		C80.8,70.7,80.6,71,80.2,71.2 M65,71.6c0.4-0.3,0.8-0.7,1-1c0.2-0.3,0.4-0.6,0.6-0.9c0,0.8,0.3,1.4,0.9,2H65z M70.4,61.7l3.6-9.2
		l3.6,9.2H70.4z M74.7,51.4c-0.3-0.7-0.6-1.3-0.9-1.7c-0.2-0.3-0.5-0.6-0.9-0.8l0.2,0c0.6,0,1,0.2,1.3,0.5c0.3,0.3,0.6,0.9,0.9,1.7
		l6.5,16.6c0.4,1.1,0.6,2,0.6,2.6c0,0.4-0.1,0.7-0.4,1c-0.3,0.3-0.6,0.4-1.1,0.4c0.2-0.2,0.3-0.3,0.4-0.4c0.2-0.2,0.2-0.5,0.2-0.9
		c0-0.6-0.2-1.3-0.6-2.3L74.7,51.4z M10.1,72.1c2.2,0.9,4.7,1.3,7.4,1.3c1.5,0,3-0.1,4.5-0.4c1.5-0.3,3-0.7,4.5-1.2
		c1.5-0.5,2.9-1.1,4.2-1.8v-5.2c0-1.5,0.1-2.6,0.3-3.2c0.2-0.6,0.6-1.1,1.2-1.3c0.6-0.2,1.7-0.4,3.2-0.6v-1.3H20.3v1.3
		c1.5,0.1,2.6,0.3,3.2,0.6c0.6,0.3,1,0.7,1.2,1.3c0.2,0.6,0.2,1.7,0.2,3.3c0,1-0.1,1.8-0.2,2.5c-0.1,0.7-0.4,1.3-0.8,1.9
		c-0.5,0.8-1.3,1.4-2.4,1.8c-1,0.5-2.2,0.7-3.4,0.7c-2.1,0-4-0.7-5.7-2c-1.7-1.3-3.1-3.2-4.2-5.5c-1-2.4-1.5-5.1-1.5-8.1
		c0-3.1,0.5-5.8,1.4-8.1c0.9-2.4,2.2-4.2,3.9-5.5c1.7-1.3,3.6-2,5.8-2c1.1,0,2.2,0.2,3.3,0.5c1.1,0.4,2.1,0.9,3.1,1.7
		c1,0.7,1.9,1.7,2.8,2.9c0.9,1.2,1.7,2.5,2.4,3.9h1.3l-0.4-10.4h-1.7c-0.6,0.8-1.6,1.2-3,1.2c-0.5,0-1.9-0.2-4-0.7
		c-2.1-0.5-4-0.7-5.6-0.7c-2.4,0-4.6,0.5-6.6,1.4c-2,0.9-3.7,2.2-5.1,3.9C3,46,1.9,47.8,1.1,50C0.4,52.1,0,54.2,0,56.5
		c0,2.3,0.4,4.4,1.2,6.5c0.8,2.1,1.9,3.9,3.4,5.5C6.1,70,7.9,71.3,10.1,72.1 M25,69.2c0.5-0.9,0.8-1.9,0.8-2.8v-3.1
		c0-1-0.2-1.7-0.5-2.2c-0.3-0.5-0.7-1-1.3-1.4c1,0.1,1.8,0.4,2.3,0.7c0.5,0.4,0.8,0.9,0.9,1.6c0.1,0.7,0.2,1.8,0.2,3.3
		c0,1.3-0.1,2.3-0.4,3.1c-0.3,0.8-0.8,1.4-1.5,1.9c-0.7,0.5-1.6,0.9-2.9,1.1C23.7,70.9,24.5,70.1,25,69.2 M24.2,41.4
		c0.3,0.1,0.7,0.1,0.9,0.2c0.3,0,0.6,0.1,0.9,0.1c0.5,0,1-0.1,1.7-0.4l0.3,4.3c-1.5-1.9-3.1-3.3-4.7-4.3
		C23.7,41.3,23.9,41.4,24.2,41.4 M0.8,56.4c0-1.7,0.3-3.4,0.8-5.1c0.5-1.6,1.2-3.2,2.2-4.6c1-1.5,2-2.7,3.2-3.7
		c1.2-1,2.5-1.8,3.8-2.3c0.7-0.3,1.6-0.5,2.7-0.7c-1.1,0.5-2,1-2.8,1.4c-0.8,0.4-1.6,1.1-2.5,1.9c-1.8,1.7-3.2,3.7-4.3,6.1
		c-1,2.4-1.6,4.7-1.6,7c0,2,0.4,4,1.2,6c0.8,2,2,3.8,3.5,5.4c1.1,1.2,2.2,2.1,3.3,2.8c1.1,0.7,2.4,1.3,3.9,2c-1.4-0.3-2.5-0.6-3.4-1
		c-0.9-0.3-1.8-0.7-2.7-1.3c-0.9-0.5-1.8-1.2-2.7-2.1C4,66.8,2.8,65,2,62.9C1.2,60.7,0.8,58.6,0.8,56.4 M116.8,48.7
		c0.6-0.3,1.3-0.5,2.1-0.5l0.2,0v-1.4h-10.1v1.4l0.3,0c0.5,0,1.1,0.1,1.7,0.3c0.6,0.2,1.1,0.5,1.4,0.8c0.4,0.4,0.8,0.9,1,1.6
		c0.2,0.7,0.3,1.5,0.3,2.5l0.2,12.4L97.6,46.9l-0.1-0.1h-7.8v1.4h0.4c0.7,0,1.3,0.2,2,0.6c0.6,0.4,1.3,0.9,1.9,1.7l0.3,14.9
		c0,1.3,0,2.4-0.1,3.2c-0.1,0.8-0.5,1.5-1.1,2.1c-0.6,0.6-1.5,0.9-2.7,1l-0.2,0V73h10.1v-1.3l-0.2,0c-0.9-0.1-1.7-0.3-2.2-0.5
		c-0.6-0.3-1-0.6-1.3-1c-0.3-0.4-0.5-1-0.6-1.6c-0.1-0.6-0.2-1.4-0.2-2.3L95.5,52l18.4,21.5h1.4l-0.3-21.2c0-0.9,0.2-1.6,0.5-2.3
		C115.8,49.5,116.2,49,116.8,48.7 M96,71.6h-2.8c0.4-0.3,0.7-0.6,0.9-0.9c0.2-0.3,0.4-0.6,0.6-1c0.1,0.4,0.3,0.7,0.4,1
		C95.4,71,95.6,71.3,96,71.6 M95.4,50.5c-0.7-0.8-1.2-1.4-1.6-1.8c-0.2-0.2-0.5-0.4-0.9-0.6c0.8,0,1.4,0.2,1.9,0.5
		c0.5,0.3,0.9,0.7,1.2,1.2l16.5,19.2c0.5,0.5,0.8,0.9,0.9,1.2c0.2,0.2,0.3,0.4,0.3,0.6c0.1,0.1,0.1,0.4,0.1,0.7c0,0.2,0,0.4,0,0.5
		L95.4,50.5z M113.9,49.9c-0.2-0.5-0.5-0.8-0.8-1.1c-0.2-0.2-0.5-0.4-0.8-0.6h2.7C114.5,48.6,114.2,49.2,113.9,49.9 M183.6,70.5
		c-0.2,0.4-0.5,0.7-1,0.9c-0.5,0.2-1.3,0.3-2.4,0.3h-0.4V73h22.4l2.6-6.9h-2l-0.1,0.1c-0.8,1.1-1.7,2-2.5,2.8
		c-0.8,0.7-1.6,1.3-2.4,1.7c-0.8,0.4-1.6,0.7-2.4,0.8c-0.8,0.2-1.7,0.2-2.6,0.2c-1.1,0-2-0.1-2.6-0.3c-0.6-0.2-1-0.4-1.2-0.8
		c-0.2-0.4-0.3-0.9-0.3-1.5V51.2c0-0.8,0.1-1.4,0.3-1.9c0.2-0.4,0.5-0.7,1-0.8c0.5-0.2,1.2-0.2,2.1-0.2h0.7v-1.4h-13.1v1.4h0.2
		c1.2,0,2,0.1,2.6,0.3c0.5,0.2,0.9,0.5,1,0.9c0.2,0.4,0.2,1.1,0.2,2v17.3C183.9,69.5,183.8,70.1,183.6,70.5 M199.8,70.5
		c0.5-0.4,1-0.8,1.5-1.3l-1.1,2.5h-2.4C198.6,71.3,199.2,70.9,199.8,70.5 M184.5,48.9c-0.1-0.2-0.3-0.5-0.6-0.7
		c0.8,0,1.3,0.3,1.5,0.8c0.2,0.6,0.3,1.5,0.3,2.7v17.6c0,1.7-0.5,2.5-1.7,2.5l-0.1,0c0.3-0.2,0.5-0.4,0.6-0.7
		c0.2-0.4,0.3-0.9,0.3-1.5V50.8C184.8,49.9,184.7,49.2,184.5,48.9 M45,61.2c0.4,0,0.8,0.3,1.4,0.8c0.6,0.6,1.5,1.7,2.6,3.2l2.6,3.3
		c0.8,1,1.6,1.9,2.2,2.5c0.7,0.6,1.3,1.2,2,1.5c0.7,0.4,1.5,0.5,2.3,0.5h3.6v-1.3l-0.1,0c-0.4-0.1-0.8-0.3-1.2-0.5
		c-0.4-0.2-0.7-0.5-1.1-0.9c-0.4-0.4-0.8-0.8-1.2-1.2c-0.4-0.5-0.9-1-1.5-1.8c-0.2-0.3-0.4-0.5-0.6-0.6l-2.2-2.5
		c-1.1-1.4-2.1-2.5-2.9-3.3c1-0.2,1.9-0.5,2.7-0.9c0.9-0.4,1.6-1,2.2-1.6c0.6-0.6,1.1-1.3,1.4-2.1c0.3-0.8,0.5-1.6,0.5-2.4
		c0-1.2-0.4-2.4-1.1-3.5c-0.7-1.1-1.8-1.9-3.1-2.6c-1.4-0.6-3-1-4.8-1H34.1v1.4l0.2,0c1.2,0,2.1,0.1,2.7,0.3c0.5,0.2,0.9,0.5,1,0.9
		c0.2,0.5,0.3,1.2,0.3,2.1v17.1c0,0.9-0.1,1.5-0.3,1.9c-0.2,0.4-0.5,0.6-1.1,0.8c-0.6,0.2-1.4,0.3-2.6,0.3l-0.2,0V73h13v-1.4l-0.2,0
		c-0.2,0-0.6,0-1.1-0.1c-0.5-0.1-0.9-0.1-1.3-0.2c-0.6-0.2-1-0.5-1.2-0.9c-0.2-0.4-0.3-1-0.3-1.7v-7.6H45z M51.4,65.3
		c0.9,1.1,1.7,2.1,2.5,3.1c0.8,1,1.6,1.8,2.3,2.5c0.5,0.4,1,0.8,1.5,1.1c-0.3,0-0.6-0.1-0.9-0.2c-0.5-0.2-1.1-0.5-1.8-1
		c-0.7-0.5-1.4-1.3-2.2-2.4c-0.9-1.2-1.8-2.3-2.7-3.4c-0.9-1.1-1.6-2-2.2-2.7c-0.4-0.5-0.8-0.9-1.2-1.2h1c0.3,0.2,0.5,0.4,0.7,0.5
		c0.2,0.2,0.3,0.4,0.5,0.6C49.7,63.2,50.6,64.3,51.4,65.3 M53.1,50c0.8,1,1.1,2.3,1.1,3.9c0,1.7-0.4,3-1.3,4
		c-0.6,0.7-1.3,1.1-2.2,1.4c0.7-0.4,1.2-0.9,1.6-1.4c0.7-0.9,1-2.1,1-3.8c0-1.6-0.3-2.9-0.8-3.9c-0.4-0.7-0.9-1.3-1.6-1.8
		C51.9,48.8,52.6,49.3,53.1,50 M43.2,51.7c0-0.9,0.1-1.7,0.2-2.2c0.1-0.5,0.4-0.8,0.9-1c0.5-0.2,1.1-0.4,2.1-0.4
		c0.9,0,1.7,0.1,2.3,0.2c0.6,0.1,1.1,0.4,1.7,0.7c1.5,1,2.2,2.7,2.2,4.9c0,1.9-0.5,3.3-1.4,4.2c-0.5,0.5-1.2,0.9-2.1,1.2
		c-1,0.3-1.9,0.5-2.9,0.5h-2.8V51.7z M40,70c0,0.9-0.5,1.5-1.6,1.6c0.5-0.5,0.8-1.2,0.8-2.1V51.4c0-1.1-0.1-1.9-0.3-2.3
		c-0.1-0.3-0.4-0.6-0.7-0.9c0.4,0,0.7,0.1,0.9,0.3c0.3,0.2,0.5,0.5,0.6,1c0.1,0.5,0.1,1.2,0.1,2.1V70z M176,51.6
		c0.7-1.1,1-2.3,1-3.5c0-1.2-0.3-2.3-0.8-3.3c-0.5-1-1.3-1.9-2.2-2.7c-0.9-0.8-2.1-1.4-3.5-1.8c-1.4-0.4-2.9-0.6-4.5-0.6h-18.4V41
		c1.6,0,2.7,0.1,3.4,0.4c0.7,0.3,1.1,0.7,1.3,1.3c0.2,0.6,0.3,1.5,0.3,2.7v20.8c0,1.4-0.1,2.5-0.2,3.1c-0.1,0.7-0.5,1.2-1.1,1.6
		c-0.6,0.4-1.7,0.6-3.1,0.6h-0.5v1.3h19.2c1.6,0,3.2-0.2,4.5-0.6c1.4-0.4,2.6-1,3.5-1.7c1-0.7,1.7-1.6,2.2-2.6
		c0.5-1,0.8-2.1,0.8-3.3c0-2.3-0.8-4.2-2.5-5.8c-1.7-1.5-4.1-2.5-7.3-2.9c1.9-0.3,3.6-0.8,4.9-1.5C174.4,53.6,175.4,52.7,176,51.6
		 M158.6,44.6c0-1.3,0.3-2.3,1-2.8c0.6-0.5,1.8-0.8,3.6-0.8c1.4,0,2.4,0.1,3.3,0.3c0.8,0.2,1.5,0.6,2.2,1.4c0.6,0.6,1.1,1.4,1.5,2.4
		c0.4,1,0.5,2,0.5,3.2c0,1.4-0.3,2.7-0.8,3.8c-0.6,1.1-1.3,1.9-2.2,2.4c-1,0.5-2.5,0.8-4.6,0.8h-4.4V44.6z M155,67.7
		c0,1.1-0.2,2-0.5,2.8c-0.3,0.7-1.1,1.1-2.3,1.1h-0.7c0.7-0.3,1.2-0.7,1.5-1.2c0.3-0.5,0.5-1.3,0.5-2.5V44.6c0-1.2-0.1-2-0.4-2.5
		c-0.3-0.5-0.8-0.9-1.5-1.1h0.5c1.1,0,1.9,0.3,2.3,0.8c0.4,0.5,0.6,1.3,0.6,2.4V67.7z M164.2,71.5c-1.1,0-2,0-2.7-0.1
		c-0.7-0.1-1.2-0.3-1.7-0.5c-0.4-0.3-0.8-0.6-1-1.1c-0.2-0.5-0.3-1.1-0.3-1.9V56.4h5.4c1.5,0,2.9,0.3,4,0.9c1.1,0.6,2,1.5,2.5,2.7
		c0.6,1.2,0.9,2.5,0.9,4.1c0,1.6-0.3,2.9-0.8,4c-0.5,1.1-1.3,1.9-2.4,2.5C167.1,71.2,165.8,71.5,164.2,71.5 M171.9,58.7
		c1.1,1.3,1.7,3.1,1.7,5.2c0,2.3-0.5,4.1-1.6,5.5c-1,1.3-2.6,2.1-4.6,2.4c3.1-1.1,4.7-3.6,4.7-7.5c0-2.1-0.4-3.7-1.2-5
		c-0.8-1.3-2-2.2-3.6-2.8C169.2,56.6,170.8,57.3,171.9,58.7 M167.6,55.1c2.6-1.3,3.9-3.5,3.9-6.8c0-1.8-0.3-3.3-1-4.6
		c-0.7-1.3-1.7-2.2-3-2.7c1.2,0.1,2.2,0.5,3,1.1c0.8,0.7,1.4,1.5,1.8,2.5c0.4,1,0.6,2.2,0.6,3.4C172.9,51.8,171.1,54.2,167.6,55.1
		 M139.3,21.9c0.2,0.2,0.4,0.5,0.4,0.8l0.1,0.1l0,0l0.1,0v0l0,0.1l0,0c0.2,0.6,0,1.8-0.6,2.1c-0.2,0.1-0.5,0.1-0.7,0.2
		c-0.1,0-0.3,0-0.4,0.1c-0.6,0.2-1,0.6-1.3,1.1c-0.8,1.2-0.5,2.9,0.8,5c0.3,0.8,1.2,1.6,1.6,1.9l0.1,0c0.3,0.5,0.7,1,1.4,1.2
		c0.2,0.2,0.4,0.4,0.7,0.4l0,0l0.1,0c0,0.1,0,0.2,0.1,0.3c0.2,0.5,0.5,0.9,0.9,1.3c0.4,0.4,0.6,0.7,0.9,1.2c0.1,0.1,0.1,0.2,0.2,0.4
		l0,0l0,0.2l0.1,0.1l0.1-0.1l0-0.1c-0.2-1.3,0.6-2.5,1.5-3.6c0.3-0.4,0.5-0.7,0.7-1c0.3-0.4,0.3-0.9,0.2-1.3c0-0.1,0-0.2,0.1-0.3
		c0.2-1.2,0.4-2.3,0-3.5c-0.1-0.2-0.2-0.4-0.3-0.7c0.2,0,0.4-0.1,0.5-0.2c0.1-0.1,0.1-0.2,0.2-0.3c0.1,0.3,0.2,0.6,0.3,1
		c0.2,0.8,0.2,1.6,0.1,2.3c0,0.2,0,0.5,0,0.7c0,0.7,0.2,1.7,0.8,2.4c0.3,0.3,0.7,0.5,1.1,0.5c0.1,0.4,0.3,0.8,0.7,1.2
		c0.3,0.3,0.7,0.5,1.2,0.5h0c0.3,0,0.6-0.1,0.9-0.1c0.5,0.5,1.3,0.8,2.2,0.8h0c0.1,0,0.2,0,0.3-0.1c0.5,0.4,1,0.6,1.5,0.6
		c0.3,0,0.6-0.1,0.9-0.3c0.3,0.2,0.6,0.2,1,0.2c0.7,0,1.4-0.3,1.9-0.8l0,0c1.4,0.9,2.9,1.1,4.5,1.2c0.4,0.1,0.9,0.2,1.4,0.2
		c0.3,0,0.7,0,1-0.1l0.1-0.1l-0.1-0.1h0c-0.2,0-0.3,0-0.5,0c-0.3,0-0.5,0-0.8-0.1l-0.1,0l-0.1,0c-1.3-0.3-2.4-1.1-3.5-2l-0.1-0.1
		c-0.4-0.3-0.8-0.7-1.2-1c-0.4-0.5-0.8-1.1-1.1-1.6c-0.4-0.6-0.6-1.3-0.8-1.9c-0.1-0.4-0.3-0.8-0.4-1.1c-0.2-0.5-0.6-0.9-1-1.3
		c-0.6-1.8-2.4-3-3.4-3.6c-1.1-0.6-2.4-0.8-3.6-0.9l0-0.2l-0.1-0.2l0-0.2c0-0.1-0.1-0.2-0.1-0.3c0.5,0.1,1,0.4,1.4,0.7
		c0.3,0.2,0.6,0.3,0.9,0.5l0.1,0.1c0.1,0.1,0.2,0.1,0.2,0.1l0.2-0.1c0.2-0.1,0.3-0.2,0.4-0.4c0-0.2,0-0.4-0.2-0.5
		c-0.3-0.8-1.4-1.7-2-2.1l-0.1-0.1c-0.7-0.5-1.6-0.9-2.5-1.1c0.1,0,0.2,0,0.3-0.1c0.1,0,0.2,0.1,0.3,0.1l0,0c0.1,0,0.2-0.1,0.3-0.2
		c0.1-0.1,0.1-0.3,0-0.4c-0.4-1.1-1.9-1.3-2.9-1.4c-0.1,0-0.3,0-0.4-0.1c-0.5-0.1-1-0.1-1.5-0.1c-0.2,0-0.3,0-0.4,0
		c0.3-0.1,0.5-0.3,0.6-0.5l0-0.2l-0.2-0.1l-0.2,0l-0.1,0c-0.3,0-0.6-0.1-0.9-0.1c-1.9,0-3.4,0.8-4.2,2.1c-0.4,0.7-0.6,1.5-0.5,2.3
		C138.9,21.3,139.1,21.6,139.3,21.9 M143.5,36.2c-0.1-0.3-0.3-0.6-0.4-0.8c-0.2-0.4-0.4-0.7-0.5-1.1c-0.2-0.8-0.6-1.7-1.3-2.3
		l-0.2,0l0,0.1c0.6,0.6,0.6,1.1,0.6,1.7v0l-0.1-0.3c-0.1-0.2-0.1-0.4-0.2-0.6c0-0.1-0.1-0.3-0.1-0.4c-0.2-0.5-0.4-1.1-0.8-1.6
		l-0.2,0l0,0.1c0.3,0.5,0.3,0.9,0.3,1.4c-0.5-0.9-1-1.8-1.1-2.8l-0.1-0.1l-0.1,0.1c-0.2,0.9-0.2,1.6-0.1,2.2
		c-0.3-0.7-0.3-1.5-0.3-2.3c0-0.6,0-1.3-0.2-2l-0.2,0l0,0.1c0,0.4-0.1,0.8-0.3,1.2c0-0.3,0-0.6-0.1-0.9c-0.2-1.3,0-2,0.8-2.2
		c0.1,0,0.3,0,0.4-0.1c0.2,0,0.4-0.1,0.6-0.1c0.3-0.1,0.6-0.3,0.7-0.7c0.2-0.5,0.2-1.3,0-1.9C144.1,26.3,143.9,31.8,143.5,36.2
		 M143.8,37.1l0-0.1l0.1-0.2C143.8,36.9,143.8,37,143.8,37.1 M159.3,34c0.9,1,2,2.1,3.5,2.9c-1.1-0.3-2.1-0.6-2.9-1.1
		c-1-0.6-1.9-1.3-2.8-2.1c-0.3-0.3-0.7-0.6-1-0.8l-0.2,0l0,0.1c1.2,1.1,2.3,2.1,3.5,2.9c-0.2,0-0.3,0.1-0.5,0.1
		c-0.3,0.1-0.7,0.2-1,0.2c-0.1,0-0.3,0-0.4,0l0,0l0,0l-0.2-0.1v0c-0.5-0.2-0.8-0.8-1.1-1.3l-0.1-0.1c-0.1-0.2-0.3-0.5-0.4-0.7
		c-0.5-0.8-1-1.7-1.7-2.2l-0.2,0l0,0.1c0.7,0.6,1.1,1.5,1.5,2.3c0.3,0.7,0.6,1.4,1.1,2l0.1,0.1c-0.7,0.2-1.2-0.1-1.6-0.8
		c-0.3-0.6-0.7-1.1-1-1.6c-0.3-0.4-0.5-0.8-0.8-1.2c-0.3-0.5-0.5-1-0.8-1.5c-0.5-1.2-1.1-2.4-2.2-3.2l-0.2,0.1l0,0.1
		c1.2,1,1.8,2.6,2.3,4.1c0.3,0.9,0.6,1.7,1,2.4c0.1,0.2,0.2,0.4,0.4,0.5c-1-0.2-1.5-0.7-1.9-1.7c-0.4-0.8-0.6-1.7-0.9-2.6
		c-0.2-0.7-0.4-1.4-0.7-2l-0.2,0l0,0.1c0.3,0.8,0.5,1.7,0.7,2.6c0.2,0.9,0.4,1.9,0.7,2.8c0,0.1,0.1,0.2,0.1,0.3
		c-1.2-0.6-2-1.7-2.2-3c0-0.3,0-0.6-0.1-1c0-0.8,0-1.7-0.5-2.4l-0.2,0l0,0.1c0.3,0.5,0.3,1.1,0.2,1.7c0,0.2,0,0.3,0,0.5
		c0,0.9,0.1,1.7,0.2,2.4v0c-0.5-0.3-0.8-0.6-1-1.3c-0.1-0.5-0.1-1.1,0-1.7c0-0.3,0-0.6,0-0.9c0-2-1-3.6-2.9-4.8l-0.2,0.1l0,0.1
		c0.5,0.5,1,0.9,1.3,1.5l0,0c-0.2-0.1-0.5-0.4-0.7-0.6c-0.2-0.2-0.4-0.4-0.6-0.6c-0.9-0.6-1.9-1.1-3.2-1.4l0,0l-0.1,0.1l0.1,0.1
		c1,0.4,1.9,0.7,2.6,1.5c0.4,0.4,0.8,1.1,1.1,1.7c-0.3-0.2-0.6-0.3-1-0.3l-0.1,0.1l0,0.2c1.2,1,1.5,2.8,1.6,4.4
		c-0.2-0.3-0.5-0.5-0.9-0.8l-0.2,0l0,0.1c1.1,1.2,0.1,3.4-0.3,4.3l0,0c-0.1,0.2-0.2,0.4-0.3,0.6c0.6-2.1,0.2-4.2-0.3-6.4
		c-0.7-3-1.9-5-3.5-6.4c1.4,0,2.8,0.3,4.6,0.6c2.9,0.7,5.3,1.7,7.3,3c2,1.3,3.5,3.2,5,5.1C158,32.5,158.6,33.2,159.3,34 M146.2,23.4
		c0.3,0.1,0.5,0.2,0.8,0.3c-0.8-0.3-1.6-0.5-2.4-0.6c0.2,0,0.5,0,0.7,0c0.8,0,1.5,0.1,2.1,0.4l0,0c-0.4,0-0.8-0.1-1.2-0.2l-0.1,0.1
		L146.2,23.4z M152.4,24.8c1.8,0.5,2.9,1.5,3.9,2.7c-0.4-0.2-0.8-0.4-1.2-0.6c-0.5-0.2-1.1-0.5-1.6-0.8l-0.2,0.1l0,0.1
		c0.5,0.3,0.9,0.6,1.4,0.8c0.3,0.1,0.5,0.3,0.8,0.4c0.7,0.4,1.2,1.4,1.5,2.2c0.1,0.3,0.3,0.6,0.4,0.9c0.2,0.4,0.4,0.7,0.6,1.1
		c-0.1-0.1-0.2-0.2-0.4-0.4c-0.5-0.5-0.9-0.9-1.3-1.4c-1.5-1.6-3.1-3.3-5.2-4.5c-1.3-0.7-2.6-1.3-4-1.8c0.9,0.3,1.8,0.4,2.7,0.5
		C150.7,24.4,151.6,24.6,152.4,24.8 M149.9,20.9c0.3,0.2,0.6,0.4,0.8,0.6c-0.5-0.4-1-0.7-1.6-1C149.4,20.6,149.7,20.7,149.9,20.9
		 M140.4,18.3c0.6-0.6,1.3-0.8,2-0.9l-0.2,0.1l-0.1,0c-0.6,0.3-1.4,0.9-1.6,1.7l0,0.1l0.1,0l0.1-0.1c0.2-0.5,0.8-0.8,1.4-1
		c1.3-0.4,2.6-0.3,3.8,0.2c0.3,0.1,0.6,0.3,0.9,0.4l-0.2,0c-0.3,0-0.7,0-1,0c-0.7,0-1.5,0-2.2-0.2l-0.1,0.1l0.1,0.1
		c0.5,0.1,1,0.2,1.4,0.3c0.6,0.1,1.2,0.2,1.8,0.4c0.1,0,0.3,0.1,0.4,0.1c0.2,0.1,0.3,0.1,0.5,0.2c-0.9-0.3-1.8-0.4-2.6-0.4
		c-2,0-3.5,0.8-4.4,2.3l0,0.1l0.1,0.1l0.1-0.1c0.7-1.2,1.8-1.8,3.4-1.8c0.8,0,1.6,0.1,2.7,0.4c1.4,0.4,3.1,0.9,4.4,1.9
		c-0.2-0.1-0.5-0.1-0.8-0.2c-0.5-0.1-1-0.1-1.5-0.1c-0.5-0.1-1-0.1-1.3-0.2l-0.1,0c-0.5,0-1-0.1-1.6-0.1c-1.3,0-2.4,0.2-3.3,0.6
		l-0.1,0.1l0.1,0.1c1.5-0.5,3-0.5,4.4-0.1c0.1,0,0.2,0.1,0.4,0.1c-0.1,0-0.2,0-0.3,0c-1.1-0.1-2.1,0-3.2,0.2l-0.1,0
		c-1.1-0.2-2.2-0.3-3.3-0.3c-0.1,0-0.3,0-0.4,0l0.1-0.1l0.1-0.4c0-0.2,0-0.3-0.1-0.4c-0.4-0.3-0.7-0.6-0.8-1.1
		C139.4,19.8,139.9,18.9,140.4,18.3 M113.2,36.8c0.2-0.2,0.1-0.5,0.1-0.7l0.1,0c0.1,0.2,0.1,0.6,0,0.8c-0.1,0.3-0.4,0.5-0.7,0.5
		c-0.3,0-0.7-0.3-0.9-0.6c-0.1-0.3,0.1-0.5,0.3-0.7l0,0c-0.2,0.2-0.2,0.4,0,0.6c0.2,0.2,0.4,0.3,0.7,0.3
		C112.9,37,113.1,36.9,113.2,36.8 M109.9,32c-2.2,0.2-3.9,0.4-3.8,1c0.1,0.6,10.7,3.1,11.5,2.7c0.8-0.5-0.3-1.3,0.4-1.8
		c0.4-0.3,2.9,1.4,5,2.2c0.3-0.3,0.6-0.5,0.9-0.8c-2.1-0.4-4.9-2-4.9-2s3,0.4,4.4,0.6c0.5,0.1,1,0.2,1.5,0.4l0.2-0.2
		c-0.3-0.1-0.7-0.2-1.1-0.3C121.8,33.4,112.2,31.9,109.9,32 M112.6,34.6l-2.4-2.1l2.9,0.2l2.8,2.7L112.6,34.6z M117.1,35.5l-3.1-2.8
		l2.4,0.1l1.1,1.3C117.4,34.2,118.2,35.9,117.1,35.5 M111.1,37.4c0.1,0.2,0.1,0.6,0,0.8c0,0.1-0.1,0.2-0.1,0.2
		c-0.1-0.1-0.2-0.1-0.3-0.2c0.1,0,0.2-0.1,0.3-0.2C111.1,38,111.1,37.7,111.1,37.4L111.1,37.4z M114.1,37c-0.1,0.8-0.8,1.2-1.6,1.2
		c-0.2,0-0.3-0.1-0.5-0.1v0.1c0,0.3-0.1,0.5-0.3,0.7c-0.2-0.1-0.3-0.2-0.5-0.2c0.1-0.1,0.2-0.2,0.3-0.4c0.1-0.1,0.1-0.2,0.1-0.4
		c-0.4-0.2-0.6-0.6-0.7-1.1c-0.1-0.1-0.2-0.1-0.3-0.2c-0.3,0-0.5,0.1-0.6,0.2c-0.3,0.2-0.5,0.4-0.6,0.8c-0.1-0.1-0.2-0.1-0.3-0.2
		c0.2-0.2,0.4-0.4,0.6-0.5c0.4-0.2,0.8-0.2,1-0.2v0l0.2,0c0-0.2,0-0.4,0.1-0.5l0.1-0.1l0-0.1c0.1-0.2,0.3-0.3,0.5-0.4l0,0
		c0.4-0.4,0.8-0.1,0.6-0.1c-0.1,0-0.3,0.1-0.4,0.2l-0.2,0.1l0,0c-0.2,0.2-0.3,0.6-0.2,1c0.1,0.6,0.6,0.9,1.1,1
		c1.3,0.2,1.7-1.7,0.6-2.2l0.2,0C113.9,35.6,114.2,36.4,114.1,37 M135,26.6c0.2,0.9,0.4,2,0.2,2.7c-0.5-0.5-1.1-0.4-1.5,0.3
		c-0.1,0.2-0.1,0.4,0,0.5c0.1,0.3,0.6,0.4,0.9,0.4c0.2,0,0.5,0,0.7-0.1l0.1,0.1c0.3,0.5,0.5,1,0.6,1.3c0.3,0.9,0.2,1.9-0.4,2.6
		c-0.5-0.7-1.3-1.3-2.1-1.3c-0.4,0-1,0.2-1.4,1c-0.2,0.4-0.2,0.8,0,1.1c0.4,0.6,1.3,0.8,2.1,0.8c0.4,0,0.8-0.1,1.1-0.2l0.2-0.1
		c0.1,0.3,0.1,0.6,0.1,0.9c0,1.1-0.3,2.1-1,2.8c-0.9,0.9-2.2,1.3-3.8,1.3c-1.7,0-3.4-0.6-4.4-1.5l-0.2,0l0,0.1
		c1.4,1.1,3.1,1.8,4.7,1.8c0.7,0,1.3-0.1,1.9-0.3c2.1-0.8,4-3.1,3.3-5.6c0.9-0.9,1-2.5,0.4-4.2c-0.1-0.1-0.3-0.6-0.6-1.1
		c0.5-0.9,0.2-1.9,0-2.8l-0.1-0.2c-0.3-1.2-0.2-2.2,0.4-3c0.5-0.7,1.2-1.1,2-1.1c0.4,0,0.9,0.1,1.2,0.3c0.1,0.1,0.2,0,0.3-0.1
		l-0.1-0.2c-0.4-0.4-1-0.6-1.5-0.6c-1.5,0-3,1.4-3.1,3C134.8,25.5,134.9,26.1,135,26.6 M134.5,29.9L134.5,29.9
		c0-0.1,0.1-0.1,0.2-0.1l0.1,0.1C134.7,29.9,134.6,29.9,134.5,29.9 M133.9,35.2L133.9,35.2c-0.3,0-0.5-0.1-0.8-0.2l0-0.2
		c0.1-0.3,0.1-0.5,0.2-0.8c0.4-0.1,0.7,0,1,0.2c0.3,0.2,0.5,0.4,0.6,0.7C134.6,35.1,134.2,35.2,133.9,35.2 M109.8,37.4L109.8,37.4
		c-0.1,0.1-0.2,0.2-0.2,0.3l-0.1,0C109.7,37.6,109.7,37.5,109.8,37.4 M103.7,15c0.5-0.1,1.8-0.8,2.4-0.6c-0.2,0.3-0.2,0.6,0.3,0.8
		c0.4,0.2,0.4-0.6,0.2-0.9l0.1-0.1c0.2-0.2,0.5-0.4,0.7-0.5c0.5-0.3,1.2-0.3,1.6,0c-0.6,0.6-0.9,1.7,0.1,2c1,0.3,1-1.3,0.6-1.9
		l-0.1-0.1c0.2-0.1,0.4-0.2,0.6-0.2c0.5-0.1,0.9-0.1,1.2,0.1l0.1-0.1c-0.7-0.3-1.5-0.4-2.2,0c-0.7-0.5-1.7-0.2-2.4,0.2
		c-0.2,0.1-0.4,0.3-0.6,0.5c-0.6-0.2-1.2,0.1-1.7,0.4c-0.6,0.3-1.2,0.4-1.8,0.1c-0.7-0.3-1-1.1-0.8-1.8l-0.1,0
		C101.3,13.8,102.5,15.1,103.7,15 M109.5,14.5c0,0.2,0,0.3,0,0.5c-0.2,0-0.4,0-0.7,0c-0.1-0.2-0.1-0.4,0-0.6
		c0.1-0.2,0.2-0.4,0.4-0.5C109.3,14,109.4,14.2,109.5,14.5 M106.3,14.4c0.1,0.1,0.1,0.2,0.1,0.3c0,0.3-0.2,0-0.2-0.1L106.3,14.4z
		 M105,12.7L105,12.7c0.6,0.2,1.3,0.3,1.9-0.1c0.3-0.2,0.5-0.6,0.7-0.8c0.3-0.5,1-0.8,1.6-0.9c1.3-0.2,2.5,0.4,3.4,1.3l0,0
		c-0.7-0.6-1.5-1.1-2.4-1.1c-0.5,0-0.8,0.1-1.1,0.3c0.8-0.2,1.7,0,2.3,0.4c0.6,0.4,1.1,0.8,1.4,1.4h-0.1c-0.3-0.4-0.7-0.8-1.1-1.1
		c-0.6-0.4-2-0.8-2.6-0.2c0.2,0,0.3,0.2,0.3,0.4c0,0.1-0.1,0,0.1,0.1l0.2,0c0.3,0,0.4-0.1,0.7-0.2c0.8-0.2,1.4,0.6,1.9,1.1l0,0
		c-0.5-0.3-0.9-0.8-1.4-0.9c-0.4,0-0.9,0.4-1.3,0.5c-0.3,0.1-0.6,0.1-0.8-0.2c-0.1-0.1-0.1-0.2-0.1-0.3l-0.2-0.1l-0.1,0.1
		C107.2,13,106.1,13.3,105,12.7 M91.1,23c0,0.1,0.2,0.2,0.3,0.1c0.4-0.2,0.8-0.3,1.2-0.3c0.8,0,1.5,0.4,2,1.1c0.6,0.8,0.7,1.8,0.4,3
		L95,27.1c-0.2,0.9-0.5,2,0,2.8c-0.3,0.5-0.5,1-0.6,1.1c-0.7,1.7-0.5,3.3,0.4,4.2c-0.7,2.5,1.1,4.9,3.3,5.6c0.6,0.2,1.3,0.3,1.9,0.3
		c1.6,0,3.3-0.6,4.7-1.8l0-0.1l-0.2-0.1c-1.1,0.9-2.8,1.5-4.4,1.5h0c-1.6,0-2.9-0.5-3.8-1.3c-0.7-0.7-1-1.6-1-2.8
		c0-0.3,0-0.6,0.1-0.9l0.2,0.1c0.3,0.1,0.7,0.2,1.1,0.2c0.8,0,1.7-0.3,2.1-0.8c0.2-0.3,0.2-0.7,0-1.1c-0.4-0.8-1-1-1.4-1
		c-0.8,0-1.6,0.7-2.1,1.3c-0.6-0.7-0.8-1.7-0.4-2.6c0.1-0.4,0.3-0.9,0.6-1.3l0.1-0.1c0.2,0.1,0.4,0.1,0.7,0.1c0.3,0,0.8-0.1,0.9-0.4
		c0.1-0.1,0.1-0.3,0-0.5c-0.4-0.7-0.9-0.8-1.5-0.3c-0.2-0.7,0-1.8,0.2-2.7c0.1-0.6,0.2-1.1,0.2-1.4c-0.1-1.6-1.6-3-3.1-3
		c-0.6,0-1.1,0.2-1.5,0.6L91.1,23 M96.4,34.2c0.3-0.2,0.6-0.3,1-0.2c0.1,0.3,0.1,0.5,0.2,0.8l0,0.2c-0.3,0.1-0.5,0.1-0.8,0.1l-0.1,0
		c-0.4,0-0.7-0.1-1-0.3C95.9,34.6,96.1,34.4,96.4,34.2 M96,29.7l0.3,0.1l-0.1,0c-0.1,0-0.2,0-0.3,0L96,29.7z M114.3,15.1
		c0.2,0.2,0.4,0.5,0.5,0.7c-0.2,0-0.3,0.1-0.3,0.3l0.1,0.1l0.3-0.1L115,16l0,0c0.1,0.1,0.3,0.2,0.4,0.3c0.2,0.2,0.4,0.5,0.3,0.7
		c-0.2-0.1-0.5-0.1-0.8,0c-0.1,0.1-0.2,0.2-0.2,0.5c0,0.1,0.1,0.2,0.2,0.3c0.2,0.1,0.5,0,0.7-0.1c0.1-0.1,0.2-0.2,0.2-0.2l0,0
		l0.2,0.2c0.2,0.3,0.3,0.6,0.2,0.9c-0.1,0.4-0.4,0.7-0.8,1c-0.4,0.3-1,0.4-1.4,0.3l0,0l0,0c0.6,0.1,1.1-0.1,1.5-0.3
		c0.2-0.1,0.3-0.2,0.5-0.4c0.4-0.5,0.5-1.5-0.1-2c0.1-0.4-0.1-0.8-0.6-1.2c0,0-0.2-0.1-0.3-0.2c0-0.3-0.3-0.5-0.5-0.7l-0.1,0
		c-0.3-0.3-0.4-0.5-0.4-0.9c0-0.2,0.1-0.5,0.3-0.6c0.1-0.1,0.2-0.1,0.4-0.1l0.1-0.1l-0.1,0c-0.2,0-0.3,0-0.5,0.1
		c-0.4,0.3-0.6,0.9-0.3,1.3C114.1,14.8,114.2,14.9,114.3,15.1 M114.7,16L114.7,16L114.7,16L114.7,16L114.7,16z M115.4,17.5
		L115.4,17.5l-0.2,0.1l0-0.1l-0.1-0.2c0.1-0.1,0.2-0.1,0.3-0.1c0.1,0,0.2,0,0.3,0.1C115.6,17.3,115.5,17.4,115.4,17.5 M115.7,13.7
		c0.7,0.3,1.2,0.9,1.6,1.6c-0.1-0.1-0.3-0.1-0.5-0.2l0,0c-0.1,0-0.2-0.1-0.3-0.1l-0.2,0l-0.1-0.1c-0.1-0.1-0.2-0.1-0.3-0.1
		c-0.1-0.1-0.2-0.2-0.3-0.4l-0.3-0.1l0,0l0.1-0.1l0.1-0.1C115.7,14.1,115.8,13.9,115.7,13.7 M114.6,13.1c0.1,0,0.2,0.1,0.2,0.1
		l0.1,0l0,0l0,0l0,0l0,0h0c0.2,0.1,0.3,0.5,0.2,0.7l-0.2,0.2l-0.1,0.1c-0.1,0.1-0.2,0.3-0.2,0.5c0,0.5,0.3,0.8,1,1.2
		c0.2,0.2,0.6,0.2,0.7,0.2l0,0c0.1,0.1,0.4,0.2,0.6,0.1l0.3,0l0,0l0,0l0.1,0.1c0.1,0.1,0.3,0.2,0.4,0.2c0.2,0,0.3,0.1,0.4,0.2
		l0.1,0.1l0,0l0,0.1l0.1,0l0,0l0,0c-0.3-0.3-0.2-0.7-0.2-1.2c0-0.1,0-0.3,0-0.4c0-0.2-0.1-0.3-0.2-0.4l0-0.1
		c-0.1-0.3-0.3-0.7-0.6-0.9l-0.2-0.1l0.1-0.1l0-0.1l0.2,0.2c0.2,0.2,0.3,0.4,0.4,0.6l0.1,0.2c0.1,0.2,0.3,0.4,0.6,0.5
		c0.1,0,0.2,0,0.4,0c0.1,0.1,0.2,0.2,0.4,0.2c0.1,0,0.3,0,0.4-0.1v0l0.2-0.2c0.2,0,0.5,0,0.7-0.2l0,0l0.1-0.1c0.2,0,0.4,0,0.5-0.1
		l0.2-0.2c0.1,0,0.2,0,0.3-0.1c0.2-0.1,0.3-0.3,0.4-0.5l0,0c0.5,0,1-0.2,1.4-0.4c0.1,0,0.3-0.1,0.4-0.2l0.2-0.2l0-0.1l-0.1,0v0
		l-0.1,0.1l-0.2,0.1l0,0l0,0c-0.4,0.1-0.8,0.1-1.3,0l-0.1,0c-0.2,0-0.3,0-0.5-0.1c-0.2-0.1-0.4-0.1-0.6-0.2
		c-0.2-0.1-0.4-0.2-0.5-0.4c-0.1-0.1-0.2-0.2-0.3-0.2c-0.1-0.1-0.3-0.2-0.5-0.2c-0.4-0.4-1.1-0.4-1.5-0.4c-0.4,0-0.8,0.2-1.1,0.4
		l0,0l-0.1-0.1l0-0.1l-0.1-0.1c0.2-0.1,0.3-0.1,0.5-0.1c0.1,0,0.2,0,0.3,0l0,0l0.1,0l0-0.1l0-0.2l-0.1-0.1c-0.2-0.2-0.6-0.2-0.9-0.2
		l0,0c-0.3,0-0.6,0-0.8,0.1l0.1-0.1l0.1,0l0,0l0.1-0.1l-0.1-0.1c-0.3-0.2-0.7,0-1,0.1l-0.1,0.1c-0.1,0.1-0.3,0.1-0.4,0.2l-0.1,0.1
		c0-0.1,0.1-0.2,0.1-0.2l0-0.1l-0.1,0l0,0l0,0l-0.2,0.1c-0.5,0.3-0.8,0.8-0.8,1.2c0,0.2,0.1,0.5,0.2,0.7
		C114.4,13,114.5,13.1,114.6,13.1 M118.3,16.4L118.3,16.4L118.3,16.4L118.3,16.4z M117.8,16c-0.1-0.1-0.2-0.1-0.3-0.2
		c-0.2-0.2-0.4-0.3-0.7-0.4l0,0l0,0c0.2,0.1,0.3,0.2,0.4,0.4l0,0l-0.1,0l-0.2-0.1l-0.1-0.1c-0.1-0.1-0.3-0.2-0.5-0.3l0,0l0,0
		c0.2,0.1,0.2,0.2,0.3,0.3c-0.3-0.1-0.6-0.3-0.7-0.5l0,0l0,0c0.1,0.2,0.2,0.4,0.3,0.6c-0.2-0.1-0.3-0.3-0.5-0.6
		c-0.1-0.2-0.2-0.3-0.4-0.5l-0.1,0l0,0c0.1,0.1,0.1,0.2,0.1,0.4l-0.2-0.2c-0.3-0.3-0.3-0.5-0.2-0.7l0.1-0.1l0.1-0.1
		c0.1-0.1,0.1-0.2,0.1-0.3c0-0.2-0.2-0.4-0.3-0.5c1.5,0.2,2.3,1.7,3,2.9L117.8,16 M121.9,13c0.4,0.1,0.9,0.2,1.4,0.2
		c-0.3,0.1-0.6,0.2-0.9,0.2c-0.4,0-0.7,0-1.1-0.1c-0.1,0-0.3,0-0.4,0l0,0l0,0c0.5,0.1,0.9,0.2,1.4,0.2l-0.1,0.1
		c-0.1,0.1-0.1,0.2-0.2,0.2l-0.1,0h0l0,0l-0.1,0h0c-0.2,0-0.4-0.1-0.5-0.1l0,0l-0.2-0.1c-0.3-0.1-0.5-0.3-0.8-0.3l0,0l0,0
		c0.3,0,0.5,0.2,0.8,0.4c0.2,0.1,0.4,0.3,0.6,0.3l0,0c-0.2,0.2-0.3,0.2-0.5,0.1c-0.2-0.1-0.3-0.2-0.5-0.3c-0.1-0.1-0.3-0.1-0.4-0.2
		c-0.1-0.1-0.3-0.2-0.4-0.3c-0.3-0.2-0.7-0.5-1.1-0.5l0,0l0,0c0.5,0.1,0.9,0.4,1.3,0.7c0.2,0.2,0.4,0.4,0.7,0.5l0.2,0.1
		c-0.3,0.1-0.5,0.1-0.8-0.1c-0.2-0.2-0.4-0.4-0.7-0.5c-0.2-0.1-0.3-0.3-0.5-0.4l-0.1,0l0,0c0.2,0.2,0.4,0.4,0.6,0.6
		c0.2,0.2,0.4,0.4,0.7,0.6l0.1,0c-0.4,0-0.8-0.1-1.1-0.4c-0.1-0.1-0.1-0.2-0.2-0.3c-0.1-0.2-0.3-0.4-0.5-0.5l0,0l0,0
		c0.1,0.1,0.3,0.3,0.3,0.4l0.1,0.1c0.2,0.2,0.3,0.4,0.5,0.6l0,0c-0.2,0-0.3,0-0.5-0.2c-0.1-0.1-0.2-0.3-0.3-0.4l-0.1-0.3
		c-0.3-0.5-0.9-0.8-1.6-0.8l0,0l0,0c0.2,0,0.4,0.1,0.6,0.2l0,0c-0.1,0-0.2,0-0.3-0.1l-0.3-0.1c-0.3,0-0.7,0-1.1,0.1l0,0l0,0l0,0
		c0.3-0.1,0.6-0.1,0.9,0c0.2,0,0.4,0.2,0.6,0.3c-0.1,0-0.2,0-0.3,0.1l0,0l0,0c0.5,0.1,0.8,0.5,1.1,0.9c-0.1,0-0.2-0.1-0.4-0.1l0,0
		l0,0c0.5,0.1,0.6,0.9,0.6,1.2v0l0,0.2c-0.2-0.6-0.6-1.1-1.1-1.6c-0.7-0.7-1.3-1-2-1.1c0.4-0.2,0.8-0.4,1.3-0.6
		c0.9-0.3,1.7-0.4,2.4-0.4c0.7,0,1.5,0.3,2.1,0.5C121.3,12.8,121.6,12.9,121.9,13 M117.8,12c0.2-0.1,0.5-0.2,0.8-0.3
		c0.5-0.2,1-0.1,1.5,0.1c-0.1,0-0.3,0-0.4,0c-0.2,0-0.4,0.1-0.5,0.1l0,0l0,0c0.2,0,0.3,0,0.5,0l0.3,0c0.3,0,0.5,0.2,0.8,0.3l0.2,0.2
		c0.1,0.1,0.2,0.1,0.3,0.2l-0.1,0c-0.2,0-0.4-0.1-0.6-0.1c-0.7-0.2-1.4-0.4-2.1-0.3c-0.7,0-1.5,0.2-2.1,0.4l0.2-0.1
		c0.2-0.1,0.4-0.2,0.6-0.3h0c-0.1,0.1-0.2,0.1-0.3,0.1l0,0l0,0C117.1,12.3,117.4,12.2,117.8,12 M117.3,11.1c0.1,0,0.2,0,0.3,0
		c-0.2,0-0.4,0-0.6,0C117.1,11.1,117.2,11.1,117.3,11.1 M114.3,12c0-0.3,0.2-0.4,0.4-0.6l0,0.1l0,0c-0.1,0.2-0.2,0.5-0.1,0.7l0,0
		l0,0l0,0c0-0.2,0.1-0.3,0.2-0.5c0.3-0.3,0.6-0.5,1-0.6c0.1,0,0.2,0,0.3,0l-0.1,0l-0.3,0.1c-0.2,0.1-0.4,0.2-0.6,0.3l0,0l0,0
		c0.1,0,0.3-0.1,0.4-0.2c0.2-0.1,0.4-0.1,0.5-0.2l0.1,0l0.1,0c-0.3,0.1-0.5,0.2-0.8,0.3c-0.5,0.3-0.8,0.8-0.8,1.3l0,0h0l0,0
		c0-0.4,0.2-0.8,0.6-1c0.2-0.1,0.4-0.2,0.8-0.3c0.4-0.1,0.9-0.3,1.5-0.2l-0.2,0.1c-0.2,0.1-0.3,0.1-0.4,0.2
		c-0.1,0.1-0.3,0.1-0.4,0.2l0,0c-0.1,0.1-0.3,0.2-0.4,0.2c-0.3,0.2-0.6,0.4-0.8,0.7l0,0l0.1,0c0.3-0.4,0.7-0.6,1.1-0.8l0.1,0l-0.1,0
		c-0.3,0.2-0.6,0.3-0.8,0.6l0,0c-0.3,0.1-0.6,0.3-0.9,0.5l-0.1,0.1l0,0l0-0.1l-0.1-0.1c-0.2,0-0.3-0.1-0.4-0.2
		C114.3,12.6,114.3,12.2,114.3,12 M95.9,20.5c0,0.1,0,0.2,0,0.4v0v0c0.3,2,0.7,3.2,0.7,3.2l0,0c4.2,16.1,16.3,18.8,18.6,19.6
		c2.3-0.7,14.4-3.5,18.6-19.6l0,0c0,0,0.4-1.2,0.7-3.2v0l0,0c0-0.1,0-0.2,0-0.4c0-0.3,0.1-0.6,0.1-0.9c0.4-3.6,0.4-9.2-1.8-15.3
		c0,0-12.4,4.3-17.7-4.3C110,8.6,97.6,4.3,97.6,4.3c-2.2,6.2-2.2,11.7-1.8,15.3C95.8,20,95.9,20.2,95.9,20.5 M98.9,5.7
		c0,0,11.5,4,16.4-4.1c4.9,8.1,16.4,4.1,16.4,4.1c2,5.8,2,11,1.7,14.4c0,0.3-0.1,0.5-0.1,0.8c0,0.1,0,0.2,0,0.3l0,0v0
		c-0.3,1.9-0.6,3-0.6,3l0,0c-3.9,15.2-15.1,17.8-17.3,18.4c-2.2-0.7-13.4-3.3-17.3-18.4l0,0c0,0-0.4-1.1-0.6-3v0l0,0
		c0-0.1,0-0.2,0-0.3c0-0.3-0.1-0.5-0.1-0.8C96.8,16.7,96.8,11.4,98.9,5.7 M118,13l0.2,0l-0.1,0L118,13z M64.8,37.7
		c0.5,0,1-0.1,1.4-0.2c1.6-0.1,3.1-0.3,4.5-1.2l0,0c0.5,0.5,1.2,0.8,1.9,0.8c0.4,0,0.7-0.1,1-0.2c0.3,0.2,0.6,0.3,0.9,0.3
		c0.5,0,1-0.2,1.5-0.6c0.1,0.1,0.2,0.1,0.3,0.1h0c0.9,0,1.7-0.3,2.2-0.8c0.3,0.1,0.6,0.1,0.9,0.1c0.5,0,0.9-0.1,1.2-0.5
		c0.4-0.4,0.6-0.8,0.7-1.2c0.4,0,0.8-0.2,1.1-0.5c0.6-0.6,0.8-1.6,0.8-2.4c0-0.2,0-0.5,0-0.7c0-0.8-0.1-1.6,0.1-2.3
		c0.1-0.3,0.2-0.7,0.3-1c0,0.1,0.1,0.2,0.2,0.3c0.1,0.1,0.3,0.2,0.5,0.2c-0.1,0.2-0.2,0.4-0.3,0.7c-0.4,1.2-0.2,2.3,0,3.5
		c0,0.1,0,0.2,0,0.3c-0.1,0.4,0,0.9,0.2,1.3c0.2,0.3,0.5,0.7,0.7,1c0.8,1.1,1.7,2.3,1.5,3.6l0,0.1l0.1,0.1l0.1-0.1l0-0.2l0,0
		c0.1-0.1,0.2-0.3,0.2-0.4c0.2-0.4,0.5-0.8,0.9-1.2c0.4-0.4,0.7-0.8,0.9-1.3c0-0.1,0.1-0.2,0.1-0.3l0.1,0l0,0
		c0.3-0.1,0.5-0.2,0.7-0.4c0.7-0.1,1.1-0.7,1.4-1.2l0.1,0c0.4-0.3,1.3-1.1,1.6-1.9c1.4-2.1,1.7-3.8,0.8-5c-0.3-0.5-0.7-0.9-1.3-1.1
		c-0.1,0-0.2,0-0.4-0.1c-0.3,0-0.5-0.1-0.7-0.2c-0.6-0.3-0.7-1.5-0.6-2.1l0,0l0-0.1v0l0.1,0l0,0l0.1-0.1c0-0.3,0.2-0.6,0.4-0.8
		c0.2-0.3,0.4-0.5,0.5-0.9c0.1-0.8-0.1-1.6-0.5-2.3c-0.8-1.3-2.4-2.1-4.2-2.1c-0.3,0-0.6,0-0.9,0.1l-0.1,0l-0.1,0l-0.1,0l-0.2,0.1
		l0,0.2c0.2,0.2,0.4,0.4,0.6,0.5c-0.1,0-0.3,0-0.4,0c-0.5,0-0.9,0-1.5,0.1c-0.1,0-0.3,0-0.4,0.1c-1.1,0.1-2.5,0.3-2.9,1.4
		c-0.1,0.1,0,0.3,0,0.4c0.1,0.1,0.2,0.2,0.3,0.2l0,0c0.1,0,0.2,0,0.3-0.1c0.1,0,0.2,0.1,0.3,0.1c-0.9,0.3-1.7,0.6-2.5,1.1l-0.1,0.1
		c-0.6,0.4-1.7,1.2-2,2.1c-0.1,0.1-0.2,0.3-0.2,0.5c0,0.2,0.2,0.4,0.4,0.4L78,24c0.1,0,0.2,0,0.2-0.1l0.1-0.1
		c0.3-0.1,0.6-0.3,0.9-0.5c0.5-0.3,0.9-0.5,1.4-0.7c-0.1,0.1-0.1,0.2-0.1,0.3l0,0.2l-0.1,0.2l0,0.2c-1.2,0.1-2.4,0.3-3.6,0.9
		c-1.1,0.6-2.8,1.8-3.4,3.6c-0.4,0.3-0.7,0.7-1,1.3c-0.2,0.4-0.3,0.8-0.4,1.1c-0.2,0.6-0.4,1.3-0.8,1.9c-0.4,0.6-0.8,1.1-1.1,1.6
		c-0.4,0.3-0.8,0.7-1.2,1l-0.1,0.1c-1.1,0.9-2.2,1.7-3.5,2l-0.1,0l0,0c-0.3,0-0.5,0.1-0.8,0.1c-0.2,0-0.3,0-0.5,0l-0.1,0.1l0.1,0.1
		C64.1,37.6,64.5,37.7,64.8,37.7 M86.8,37.1c0-0.1,0-0.2-0.1-0.3l0.1,0.2L86.8,37.1z M90.9,25.7c0.2,0.1,0.4,0.1,0.6,0.1
		c0.1,0,0.3,0,0.4,0.1c0.7,0.2,1,0.9,0.8,2.2c-0.1,0.3-0.1,0.6-0.1,0.9c-0.2-0.4-0.3-0.7-0.3-1.1l0-0.1l-0.2,0
		c-0.1,0.7-0.2,1.3-0.2,2c0,0.8,0,1.6-0.3,2.3c0.1-0.6,0.1-1.3-0.1-2.2l-0.1-0.1l-0.1,0.1c-0.1,1-0.6,1.9-1.1,2.8
		c0-0.5,0-0.9,0.3-1.4l0-0.1l-0.2,0c-0.5,0.4-0.6,1-0.8,1.6c0,0.1-0.1,0.3-0.1,0.4c0,0.2-0.1,0.4-0.2,0.6L89,33.9v0
		c0-0.6,0-1.1,0.6-1.7l0-0.1l-0.2,0c-0.8,0.6-1.1,1.5-1.3,2.3c-0.1,0.4-0.3,0.7-0.5,1.1c-0.2,0.3-0.3,0.5-0.4,0.8
		c-0.4-4.4-0.6-9.9,3.1-13c-0.2,0.6-0.3,1.3,0,1.9C90.4,25.4,90.6,25.6,90.9,25.7 M80.7,20.9c0.3-0.1,0.5-0.3,0.8-0.4
		c-0.6,0.3-1.1,0.6-1.6,1C80.1,21.3,80.4,21.1,80.7,20.9 M80.2,22.2c-0.3,0-0.5,0.1-0.8,0.2c1.3-1,3-1.6,4.4-1.9
		c1.1-0.3,1.9-0.4,2.7-0.4c1.6,0,2.7,0.6,3.4,1.8l0.2,0l0-0.1c-0.9-1.5-2.4-2.3-4.4-2.3c-0.8,0-1.7,0.2-2.6,0.4
		c0.2-0.1,0.3-0.1,0.5-0.2c0.1,0,0.3-0.1,0.4-0.1c0.6-0.2,1.2-0.3,1.8-0.4c0.5-0.1,1-0.2,1.4-0.3l0.1-0.1l-0.1-0.1
		c-0.7,0.1-1.5,0.1-2.2,0.2c-0.3,0-0.7,0-1,0l-0.2,0c0.3-0.1,0.6-0.2,0.9-0.4c1.2-0.5,2.4-0.6,3.8-0.2c0.6,0.2,1.2,0.5,1.4,1
		l0.1,0.1l0.1,0l0-0.1c-0.2-0.8-0.9-1.4-1.6-1.7l-0.1,0l-0.2-0.1c0.7,0.1,1.4,0.3,2,0.9c0.5,0.6,1,1.6,0.9,2.4
		c-0.1,0.5-0.3,0.9-0.8,1.1c-0.1,0.1-0.2,0.2-0.1,0.4l0.1,0.4l0.1,0.1c-0.1,0-0.3,0-0.4,0c-1.1,0-2.2,0.1-3.3,0.3l-0.1,0
		c-1-0.2-2-0.3-3.2-0.2c-0.1,0-0.2,0-0.3,0c0.1,0,0.2-0.1,0.4-0.1c1.4-0.4,2.9-0.4,4.4,0.1l0.1-0.1L88,22.5c-1-0.4-2-0.6-3.3-0.6
		c-0.5,0-1.1,0-1.6,0.1L83,22c-0.3,0-0.9,0-1.3,0.2C81.2,22.1,80.7,22.1,80.2,22.2 M84.3,23.2c-0.4,0.1-0.8,0.2-1.2,0.2l0,0
		c0.7-0.2,1.4-0.4,2.1-0.4c0.2,0,0.4,0,0.7,0c-0.8,0.2-1.6,0.4-2.4,0.6c0.3-0.1,0.5-0.2,0.8-0.3l0.1-0.1L84.3,23.2z M73.2,30.7
		c0.1-0.3,0.3-0.6,0.4-0.9c0.4-0.9,0.8-1.8,1.5-2.2c0.2-0.1,0.5-0.3,0.8-0.4c0.5-0.2,1-0.5,1.4-0.8l0-0.1l-0.2-0.1
		c-0.5,0.3-1,0.5-1.6,0.8c-0.4,0.2-0.8,0.4-1.2,0.6c0.9-1.3,2.1-2.2,3.9-2.7c0.8-0.2,1.7-0.4,2.6-0.5c0.9-0.1,1.8-0.3,2.7-0.5
		c-1.4,0.5-2.7,1-4,1.8c-2.1,1.1-3.6,2.8-5.2,4.5c-0.4,0.5-0.9,0.9-1.3,1.4c-0.1,0.1-0.2,0.2-0.3,0.4C72.8,31.4,73.1,31,73.2,30.7
		 M71.3,34c0.7-0.7,1.3-1.5,1.9-2.3c1.5-1.8,3.1-3.7,5-5.1c2-1.4,4.4-2.4,7.3-3c1.7-0.4,3.2-0.6,4.6-0.6c-1.6,1.3-2.8,3.4-3.5,6.4
		c-0.5,2.2-0.9,4.3-0.3,6.4c-0.1-0.2-0.2-0.4-0.3-0.6l0,0c-0.5-0.9-1.5-3.1-0.3-4.3l0-0.1l-0.2,0c-0.4,0.3-0.7,0.5-0.9,0.8
		c0.1-1.6,0.4-3.4,1.6-4.4l0-0.2l-0.1-0.1h0c-0.4,0-0.7,0.1-1,0.3c0.2-0.6,0.7-1.3,1.1-1.7c0.7-0.7,1.6-1.1,2.6-1.5l0.1-0.1
		l-0.1-0.1c-1.2,0.3-2.2,0.8-3.2,1.4c-0.2,0.2-0.4,0.4-0.6,0.6c-0.2,0.2-0.4,0.5-0.7,0.6l0,0c0.3-0.5,0.8-1,1.3-1.5l0-0.1l-0.2-0.1
		c-2,1.2-2.9,2.8-2.9,4.8c0,0.3,0,0.6,0,0.9c0,0.6,0.1,1.2,0,1.7c-0.1,0.7-0.5,1-1,1.3l0,0c0.1-0.7,0.2-1.5,0.2-2.4
		c0-0.2,0-0.3,0-0.5c0-0.6,0-1.2,0.2-1.7l0-0.1l-0.2,0c-0.4,0.7-0.5,1.5-0.5,2.4c0,0.4,0,0.7-0.1,1c-0.2,1.3-1,2.4-2.2,3
		c0-0.1,0.1-0.2,0.1-0.3c0.3-0.9,0.5-1.9,0.7-2.8c0.2-0.9,0.4-1.8,0.7-2.6l0-0.1l-0.2,0c-0.2,0.7-0.5,1.3-0.7,2
		c-0.3,0.9-0.5,1.8-0.9,2.6c-0.4,1-1,1.5-1.9,1.7c0.1-0.2,0.3-0.4,0.4-0.5c0.4-0.7,0.7-1.6,1-2.4c0.5-1.6,1.1-3.2,2.3-4.2l0-0.1
		l-0.2,0c-1,0.7-1.6,2-2.1,3.2C78,32,77.8,32.5,77.5,33c-0.2,0.4-0.5,0.8-0.8,1.2c-0.4,0.5-0.7,1-1,1.6c-0.4,0.7-0.9,0.9-1.6,0.8
		l0.1-0.1c0.5-0.6,0.8-1.3,1.1-2c0.4-0.9,0.7-1.7,1.5-2.4l0-0.1l-0.2,0c-0.8,0.6-1.3,1.4-1.7,2.2c-0.1,0.2-0.3,0.5-0.4,0.7l-0.1,0.1
		c-0.3,0.5-0.6,1-1.1,1.3v0l-0.2,0.1v0l0,0c-0.1,0-0.3,0-0.4,0c-0.3,0-0.7-0.1-1-0.2c-0.1-0.1-0.3-0.1-0.5-0.1
		c1.2-0.8,2.3-1.8,3.5-2.9l0-0.1l-0.2,0c-0.3,0.3-0.7,0.5-1,0.8c-0.9,0.7-1.8,1.5-2.8,2.1c-0.9,0.5-1.8,0.8-2.9,1.1
		C69.3,36.1,70.5,34.9,71.3,34 M106.7,18c-0.2,0.2-0.2,0.5-0.2,0.7c0,0.2,0.2,0.4,0.4,0.6l0,0c-0.3-0.1-0.5-0.4-0.6-0.7
		c-0.1-0.3-0.1-0.7,0.2-0.9c0.3-0.3,0.7-0.3,1-0.1c0.3,0.2,0.4,0.6,0.4,0.9h0c0-0.3-0.2-0.5-0.4-0.6C107.1,17.8,106.9,17.8,106.7,18
		 M104.9,22.6c-0.1,0.2-0.1,0.5,0,0.7c0.1,0.2,0.3,0.3,0.4,0.3c0.2,0.1,0.5-0.1,0.6-0.2l0,0c-0.1,0.2-0.4,0.4-0.7,0.4
		c-0.3,0-0.6-0.1-0.7-0.4c-0.2-0.3-0.1-0.7,0.1-1c0.2-0.2,0.5-0.2,0.8-0.1l0,0C105.2,22.2,104.9,22.3,104.9,22.6 M98.8,21.2
		c0,0.1,0,0.2,0,0.3h0v0c0.3,1.8,0.6,2.8,0.6,2.8l0,0c3.3,12.8,12.1,15.9,15.1,16.9l0.5,0.1c0,0,0.1,0,0.2,0.1l0.1,0
		c2.4-0.7,12.2-3.4,15.7-17l0,0c0,0,0.3-1,0.6-2.8v0h0c0-0.1,0-0.2,0-0.3c0-0.2,0.1-0.5,0.1-0.8c0.3-3.2,0.3-8-1.5-13.4
		c0,0-2.6,0.9-5.8,0.9c-3.1,0-6.8-0.9-9-4.4l0,0l-0.2-0.2l-0.3,0.3l0,0c-2.3,3.4-5.9,4.2-9,4.2c-3.2,0-5.8-0.9-5.8-0.9
		c-1.9,5.4-1.9,10.2-1.5,13.4C98.8,20.7,98.8,21,98.8,21.2 M100.7,8c1,0.3,3,0.8,5.4,0.8c3.7,0,6.6-1.2,8.7-3.4l0,0l0.1-0.1l0.1-0.1
		l0,0l0.4-0.5c0,0,0.2,0.2,0.4,0.5l0,0l0.1,0.1c0.1,0.1,0.1,0.2,0.2,0.2l0,0c2,2.2,4.9,3.3,8.6,3.4c2.3,0,4.3-0.5,5.4-0.7
		c1.6,5,1.6,9.5,1.3,12.4c0,0.3-0.1,0.5-0.1,0.7l0,0.2l0,0v0.1c-0.1,0.7-0.2,1.3-0.3,1.8l-0.3,0.9c-2.2,8.6-7.3,14.1-15.1,16.5l0,0
		h-0.1l0,0c-7.8-2.3-12.8-7.9-15-16.5l-0.3-0.9c-0.1-0.4-0.2-1-0.3-1.8v-0.1l0,0l0-0.2c0-0.2-0.1-0.5-0.1-0.7
		C99.1,17.5,99.1,13,100.7,8 M102.4,22.1c-0.2-0.3-0.1-0.7,0.1-1c0.2-0.2,0.5-0.2,0.8-0.1l0,0c-0.3-0.1-0.5,0-0.6,0.3
		c-0.1,0.2-0.1,0.5,0,0.7c0.1,0.2,0.3,0.3,0.4,0.3c0.2,0.1,0.4-0.1,0.6-0.2l0,0c-0.1,0.2-0.4,0.4-0.7,0.4
		C102.8,22.5,102.6,22.4,102.4,22.1 M104.7,20.5c-0.1-0.3,0-0.6,0.2-0.8c0.2-0.2,0.7-0.3,1-0.1c0.3,0.1,0.3,0.4,0.3,0.7h0
		c0.1-0.6-0.7-0.6-1.1-0.3c-0.1,0.1-0.2,0.3-0.2,0.5c0,0.2,0.2,0.4,0.4,0.5l0,0C105,21,104.8,20.7,104.7,20.5 M125.9,25.8v-0.7
		c1.3,0.6,2.1,1.4,2.1,2.2c0,2.2-5.7,4-12.7,4s-12.7-1.8-12.7-4c0-1.4,2.2-2.6,5.5-3.3v0.3c-2.5,0.6-4.1,1.6-4.1,2.6
		c0,1.9,5.1,3.4,11.3,3.4c6.2,0,11.3-1.5,11.3-3.4C126.6,26.6,126.4,26.2,125.9,25.8 M103.6,23.2l0.1-0.1c0,0.2,0.1,0.3,0.1,0.5
		c0.3,0.7,1,1.1,1.7,0.8c0.6-0.2,1.3-0.9,1-1.6l-0.1,0c0.1,1.2-1.7,1.8-2.2,0.5c-0.2-0.5,0-1.1,0.4-1.4c0.5-0.4,1-0.4,1.5,0
		c0,0.2,0.1,0.4,0.2,0.6c0.4,0.7,1.2,1.2,2,0.8c0.5-0.3,1-0.9,1-1.5l-0.2-0.1c-0.1,0.6-0.5,1.2-1.1,1.3c-0.5,0.1-1-0.3-1.2-0.8
		c-0.3-0.5-0.3-1.1,0.2-1.5c0.3-0.2,0.6-0.3,0.9-0.3c0-0.1,0-0.2,0-0.3c-0.4-0.1-0.8,0-1.1,0.2c0-0.2,0-0.3,0-0.5
		c0.3,0.1,0.7,0.1,1-0.2l0,0l0.1-0.1l0-0.1l-0.1,0.2l0,0c-0.4,0.1-0.7,0.1-1.1-0.1c-0.1-0.1-0.1-0.2-0.2-0.3
		c-0.1-0.2-0.3-0.3-0.5-0.4c-0.2-0.4-0.3-0.9,0.1-1.3c0.4-0.5,1.1-0.6,1.5-0.1c0.1,0.1,0.2,0.3,0.3,0.4c0,0.2,0.1,0.5,0.2,0.8
		c0,0.1,0,0.2-0.1,0.4l0.1,0l0.1-0.1l0,0l0,0l0.4-0.3c-0.1-0.2-0.2-0.4-0.3-0.7c-0.1-0.6,0.3-1,0.7-1.4c0.5-0.4,1.1-0.3,1.6,0
		l0.2,0.2l0.4-0.3c-0.1-0.1-0.2-0.2-0.3-0.4c-0.3-0.5-0.5-1-0.1-1.5c0.4-0.5,1-0.8,1.6-0.6c0.5,0.1,0.8,0.4,1,0.8l0.2-0.2
		c-0.2-0.4-0.6-0.8-1-1c-0.9-0.3-1.8,0-2.4,0.8c-0.3,0.5-0.3,1.1-0.1,1.5c-0.5-0.1-1.1,0-1.6,0.3c-0.4,0.3-0.6,0.6-0.7,0.9l0-0.1
		c-0.6-0.6-1.6-0.7-2.2,0c-0.4,0.5-0.5,1-0.3,1.5c-0.4-0.1-0.7,0-1.1,0.2c-0.6,0.3-0.9,1-0.7,1.7c-0.5-0.3-1.1-0.5-1.6-0.1
		c-0.7,0.5-1,1.3-0.5,2C102.1,23.2,102.8,23.5,103.6,23.2 M104.5,21.6l-0.1-0.2l0.2,0.1L104.5,21.6z M104.8,19.4
		c0.5-0.2,1.1-0.1,1.4,0.3c0.3,0.3,0.4,0.6,0.3,1c-0.2,0.2-0.3,0.5-0.4,0.7l0,0l0,0c0,0.2,0,0.3,0,0.5c-0.4-0.4-0.8-0.6-1.3-0.4
		C104.1,21.1,103.8,19.8,104.8,19.4 M102.5,20.9c0.5-0.3,1-0.2,1.4,0c0.1,0.2,0.2,0.3,0.4,0.5c0,0.1,0,0.2,0,0.3
		c-0.4,0.3-0.6,0.7-0.6,1.1c-0.1,0.1-0.2,0.1-0.4,0.1c-0.5,0-0.9-0.2-1.2-0.6C101.9,21.8,102,21.2,102.5,20.9 M109.3,17.9
		c0,0.1,0.1,0.2,0.1,0.3l-0.2,0.2c-0.1-0.1-0.2-0.2-0.2-0.3c-0.1-0.3,0.1-0.6,0.3-0.8c0.2-0.2,0.5-0.3,0.8-0.2l0,0
		C109.6,16.9,109.2,17.4,109.3,17.9 M111.5,15.5c0,0.2,0.2,0.4,0.4,0.5l0.2,0.1l-0.3,0.2c-0.3-0.1-0.5-0.3-0.6-0.6
		c-0.1-0.3,0.1-0.6,0.3-0.8c0.2-0.2,0.5-0.3,0.8-0.2l0,0C111.8,14.5,111.4,15,111.5,15.5 M107.5,21.4c-0.1,0.2-0.1,0.4,0,0.6
		c0.1,0.2,0.3,0.3,0.5,0.4c0.2,0.1,0.4-0.1,0.6-0.2l0,0c-0.1,0.2-0.4,0.4-0.7,0.4c-0.4,0-0.6-0.1-0.8-0.5c-0.3-0.6,0.3-1.2,0.8-1.1
		v0C107.7,21,107.6,21.2,107.5,21.4 M122.2,14.2c2.9,1.2,3.3,2.6,3.4,3h0v0v0.1v9.8l-17.3,1.6c0,0,0-0.5,0-1.3l0,0v-0.1
		c0.1,0,0.2,0.1,0.4,0.1c0.5,0,1-0.4,1-1s-0.4-1-1-1v0l-0.1,0c-0.1,0-0.2,0-0.3,0l0,0v0l0,0c0-0.5,0-1,0-1.5l0,0v0
		c0.1,0,0.2,0.1,0.4,0.1c0.8,0,1.4-0.6,1.4-1.4c0-0.8-0.6-1.4-1.4-1.4c-0.1,0-0.3,0-0.4,0.1v-0.2l0,0c0-1,0-1.7,0-1.7l0.1,0l5.5-4.4
		l0.2,0.2c0.1,0.1,0.2,0.2,0.3,0.3l0,0c-0.1,0.1-0.2,0.2-0.2,0.5c0,0.2,0.1,0.3,0.2,0.4c0.2,0.1,0.5,0,0.6-0.1l0.1,0l0.2,0.1
		l0.1,0.2c-0.2,0-0.4,0-0.6,0.1c-0.1,0.1-0.4,0.3-0.3,0.8c0,0.2,0.1,0.4,0.3,0.5c0.3,0.1,0.6,0.1,1-0.1l0.1-0.1
		c0.1,0.2,0.1,0.4,0.1,0.6l0,0.1l-7.1,0.9c0,0.3,0,0.9,0,1.6l0.2,0c0.9,0,1.7,0.8,1.7,1.7c0,0.9-0.8,1.7-1.7,1.7l-0.2,0
		c0,0.3,0,0.6,0,0.8l0.2,0c0.7,0,1.3,0.6,1.3,1.3c0,0.7-0.6,1.3-1.3,1.3l-0.2,0c0,0.4,0,0.7,0,0.7l16.2-1.6v-0.7
		c-0.2,0.3-0.6,0.5-1,0.5c-0.8,0-1.4-0.6-1.4-1.4c0-0.8,0.6-1.4,1.4-1.4c0.3,0,0.6,0.1,0.8,0.3c-0.1-0.1-0.3-0.1-0.5-0.1
		c-0.6,0-1,0.5-1,1c0,0.6,0.5,1,1,1c0.3,0,0.5-0.1,0.7-0.2v-8.4l-8.3,1c0.1-0.5,0-1-0.4-1.4c0-0.3-0.1-0.6-0.3-0.9
		c0.2,0.1,0.4,0.1,0.5,0.1c0.2,0.1,0.4,0.1,0.6,0.1l0.2,0c0.1,0.1,0.3,0.2,0.5,0.2c0.1,0,0.2,0.1,0.3,0.1l0.1,0.1l0,0l0.2,0.1l0.2,0
		c0.1,0,0.1-0.1,0.2-0.2l-0.1-0.3c-0.2-0.2-0.2-0.6-0.1-1c0-0.1,0-0.3,0-0.4l0-0.1l0.2,0.1c0.1,0,0.3,0,0.4,0
		c0.1,0.1,0.2,0.1,0.4,0.2c0.2,0,0.4,0,0.6-0.1l0.2-0.1c0.2,0,0.5-0.1,0.8-0.2l0,0c0.2,0,0.4,0,0.5-0.1l0.2-0.2
		C122,14.4,122.1,14.3,122.2,14.2L122.2,14.2z M105.9,27c0,0.5,0.4,0.9,1.2,1.3c-1.3-0.4-2.1-1-2.1-1.6c0-0.8,1.2-1.4,3.1-1.9v0.4
		C106.7,25.7,105.9,26.3,105.9,27 M119.9,23.6c0,0.5,0.4,1,1,1c0.5,0,1-0.4,1-1c0-0.5-0.4-1-1-1C120.3,22.6,119.9,23,119.9,23.6
		 M121.7,23.4c0,0.3-0.3,0.6-0.6,0.6c-0.3,0-0.6-0.3-0.6-0.6c0-0.3,0.3-0.6,0.6-0.6C121.4,22.8,121.7,23.1,121.7,23.4 M113.6,19.8
		c0,0.2,0.2,0.4,0.4,0.4l0,0l0,0c0.1,0,0.2,0,0.3,0h0l0.1,0c-0.1,0.3-0.4,0.5-0.7,0.5c-0.4,0-0.8-0.3-0.8-0.8c0-0.4,0.3-0.8,0.8-0.8
		c0.3,0,0.5,0.2,0.7,0.4l-0.1,0c-0.1-0.1-0.2-0.2-0.3-0.2C113.7,19.4,113.6,19.6,113.6,19.8 M116.8,20.8c0,0.5,0.4,0.8,0.8,0.8
		c0.3,0,0.6-0.2,0.8-0.5c0,0.5-0.5,1-1.1,1c-0.6,0-1.1-0.5-1.1-1.1c0-0.6,0.5-1.1,1.1-1.1l0.2,0C117.1,20,116.8,20.4,116.8,20.8
		 M115.5,25c0,1,0.8,1.7,1.7,1.7c1,0,1.7-0.8,1.7-1.7c0-1-0.8-1.7-1.7-1.7C116.2,23.3,115.5,24,115.5,25 M117.4,23.4
		c0.7,0,1.3,0.6,1.3,1.3c0,0.7-0.6,1.3-1.3,1.3c-0.7,0-1.3-0.6-1.3-1.3C116.1,24,116.7,23.4,117.4,23.4 M110.1,20.6
		c0,0.3,0.2,0.5,0.5,0.5c0.2,0,0.4-0.1,0.4-0.3l0,0c0,0.4-0.3,0.6-0.6,0.6c-0.4,0-0.6-0.3-0.6-0.6c0-0.4,0.3-0.6,0.6-0.6l0.2,0
		C110.3,20.1,110.1,20.3,110.1,20.6 M121.7,19.6c0,0.7,0.6,1.3,1.3,1.3c0.6,0,1.2-0.5,1.3-1.1c0,0.9-0.7,1.6-1.6,1.6
		c-0.9,0-1.6-0.7-1.6-1.6c0-0.9,0.7-1.6,1.6-1.6c0.3,0,0.5,0.1,0.7,0.2c-0.1,0-0.3-0.1-0.4-0.1C122.3,18.3,121.7,18.9,121.7,19.6
		 M111.7,27.6c0.5,0,1-0.4,1-1c0-0.5-0.4-1-1-1c-0.5,0-1,0.4-1,1C110.8,27.1,111.2,27.6,111.7,27.6 M112,25.8c0.3,0,0.6,0.3,0.6,0.6
		c0,0.3-0.3,0.6-0.6,0.6c-0.3,0-0.6-0.3-0.6-0.6C111.4,26.1,111.6,25.8,112,25.8 M112.8,24.9c-0.8,0-1.5-0.7-1.5-1.5
		c0-0.8,0.7-1.5,1.5-1.5c0.1,0,0.2,0,0.3,0l-0.1,0c-0.7,0-1.2,0.5-1.2,1.2c0,0.7,0.5,1.2,1.2,1.2c0.7,0,1.2-0.5,1.2-1.2l0-0.1
		c0,0.1,0,0.2,0,0.3C114.3,24.3,113.6,24.9,112.8,24.9"/>
	<path class="st0" d="M232.2,35.7c0,0.3-0.2,0.6-0.6,0.6h-61.4c-0.3,0-0.6-0.3-0.6-0.6c0-0.3,0.2-0.6,0.6-0.6h61.4
		C232,35.2,232.2,35.4,232.2,35.7"/>
	<path class="st0" d="M231.7,35.7L231.7,35.7L231.7,35.7l-61.5,0.1l0,0l0-0.1l0.1-0.1L231.7,35.7L231.7,35.7h1
		c0-0.6-0.5-1.1-1.1-1.1h-61.4c-0.6,0-1.1,0.5-1.1,1.1c0,0.6,0.5,1.1,1.1,1.1h61.4c0.6,0,1.1-0.5,1.1-1.1H231.7L231.7,35.7z"/>
	<path class="st0" d="M0.6,35.7c0-0.3,0.3-0.6,0.6-0.6h59.1c0.3,0,0.6,0.3,0.6,0.6c0,0.3-0.2,0.6-0.6,0.6H1.2
		C0.9,36.3,0.6,36.1,0.6,35.7"/>
	<path class="st0" d="M1.1,35.7L1.1,35.7l59.2-0.1l0.1,0.1l-0.1,0.1L1.1,35.7L1.1,35.7L1.1,35.7h-1c0,0.6,0.5,1.1,1.1,1.1h59.1
		c0.6,0,1.1-0.5,1.1-1.1c0-0.6-0.5-1.1-1.1-1.1H1.2c-0.6,0-1.1,0.5-1.1,1.1H1.1L1.1,35.7z"/>
	<path class="st0" d="M228.1,79.2c0,0.3-0.3,0.6-0.6,0.6H4.5c-0.3,0-0.6-0.3-0.6-0.6c0-0.3,0.3-0.6,0.6-0.6h223.1
		C227.9,78.6,228.1,78.9,228.1,79.2"/>
	<path class="st0" d="M227.6,79.2L227.6,79.2L4.5,79.3l-0.1-0.1l0.1-0.1L227.6,79.2L227.6,79.2h1c0-0.6-0.5-1.1-1.1-1.1H4.5
		c-0.6,0-1.1,0.5-1.1,1.1c0,0.6,0.5,1.1,1.1,1.1h223.1c0.6,0,1.1-0.5,1.1-1.1H227.6L227.6,79.2z"/>
</g>
</svg>
