<svg id="ok" xmlns="http://www.w3.org/2000/svg" width="97.62" height="97" viewBox="0 0 97.62 97">
  <defs>
    <style>
      .cls-1 {
        fill: #e67d16;
      }

      .cls-2 {
        fill: #fff;
        fill-rule: evenodd;
      }
    </style>
  </defs>
  <ellipse class="cls-1" cx="48.81" cy="48.5" rx="48.81" ry="48.5"/>
  <path class="cls-2" d="M1102.5,4010.2a8.6,8.6,0,1,0-8.84-8.6A8.724,8.724,0,0,0,1102.5,4010.2Zm0-12.83a4.232,4.232,0,1,1-4.35,4.23A4.29,4.29,0,0,1,1102.5,3997.37Zm10.19,13.88c-0.5-.98-1.88-1.79-3.72-0.38-2.48,1.9-6.47,1.9-6.47,1.9s-3.99,0-6.47-1.9c-1.84-1.41-3.22-.6-3.72.38-0.87,1.7.11,2.52,2.33,3.9a14.992,14.992,0,0,0,6.18,1.79l-1.4,1.37c-1.98,1.92-3.89,3.78-5.21,5.06a1.938,1.938,0,0,0,0,2.79l0.24,0.23a2.059,2.059,0,0,0,2.86,0l5.21-5.06c1.98,1.92,3.89,3.78,5.21,5.06a2.072,2.072,0,0,0,2.87,0l0.24-.23a1.938,1.938,0,0,0,0-2.79l-5.21-5.06-1.41-1.37a15.049,15.049,0,0,0,6.14-1.79C1112.58,4013.77,1113.56,4012.95,1112.69,4011.25Z" transform="translate(-1053.38 -3962)"/>
</svg>
