<svg xmlns="http://www.w3.org/2000/svg" width="108" height="88" viewBox="0 0 108 88">
  <defs>
    <style>
      .cls-1 {
        fill: #fff;
        fill-rule: evenodd;
      }
    </style>
  </defs>
  <path class="cls-1" d="M855.794,1783.01H766.209a9.223,9.223,0,0,0-9.2,9.23v50.22a9.223,9.223,0,0,0,9.2,9.23h89.585a9.224,9.224,0,0,0,9.2-9.23v-50.22A9.224,9.224,0,0,0,855.794,1783.01Zm5.806,59.45a5.821,5.821,0,0,1-5.806,5.83H766.209a5.821,5.821,0,0,1-5.8-5.83v-50.22a5.827,5.827,0,0,1,5.8-5.83h89.585a5.827,5.827,0,0,1,5.806,5.83v50.22Zm-18.4-33.13H778.808a4.685,4.685,0,0,0-4.676,4.69v7.82a4.685,4.685,0,0,0,4.676,4.69H843.2a4.685,4.685,0,0,0,4.676-4.69v-7.82A4.685,4.685,0,0,0,843.2,1809.33Zm1.285,12.51a1.29,1.29,0,0,1-1.285,1.29H778.808a1.29,1.29,0,0,1-1.286-1.29v-7.82a1.29,1.29,0,0,1,1.286-1.29H843.2a1.29,1.29,0,0,1,1.285,1.29v7.82Zm-16.766,41.71c-0.177-.14-0.373-0.29-0.578-0.45-0.648-.5-2.368-1.83-2.437-2.41v-6.66h-3.39v6.66c0,2.2,2.172,3.88,3.758,5.11,0.19,0.14.37,0.28,0.533,0.41a3.909,3.909,0,0,1,.983,1.32,3.648,3.648,0,0,1-.709.06H796.128a3.656,3.656,0,0,1-.709-0.06,3.912,3.912,0,0,1,.984-1.32c0.163-.13.343-0.27,0.533-0.41,1.586-1.23,3.758-2.91,3.758-5.11v-6.66H797.3v6.65c-0.069.59-1.789,1.92-2.437,2.42-0.206.16-.4,0.31-0.577,0.45-1.208.97-2.864,3.25-2.163,5.26,0.346,1,1.321,2.18,4,2.18h29.747c2.68,0,3.656-1.18,4-2.18C830.577,1866.8,828.922,1864.52,827.715,1863.55Z" transform="translate(-757 -1783)"/>
</svg>
