<svg xmlns="http://www.w3.org/2000/svg" width="91.969" height="73.47" viewBox="0 0 91.969 73.47">
  <defs>
    <style>
      .cls-1 {
        fill: #fff;
        fill-rule: evenodd;
      }
    </style>
  </defs>
  <path class="cls-1" d="M547.007,1807.59a1.519,1.519,0,0,0-.58-0.28l-59.994-15.34a17.375,17.375,0,0,0-7.853,0c-2.443.64-7.24,3.66-10.73,7.43a25.538,25.538,0,0,0-6.863,16.06v41.3a8.26,8.26,0,0,0,8.281,8.21H544.7a8.26,8.26,0,0,0,8.282-8.21v-41.3A8.218,8.218,0,0,0,547.007,1807.59Zm-76.715-5.97c3.485-3.76,7.735-6.11,9.133-6.47a14,14,0,0,1,6.174,0l47.353,12.11H466.465A22.826,22.826,0,0,1,470.292,1801.62Zm79.371,55.14a4.951,4.951,0,0,1-4.967,4.92H469.268a4.95,4.95,0,0,1-4.966-4.92v-41.19c0.057-.52.144-1.06,0.251-1.57a4.948,4.948,0,0,1,4.715-3.46H544.7a4.951,4.951,0,0,1,4.967,4.92v41.3Zm-40.98-11.73a7.2,7.2,0,0,0-7.223,7.16,1.658,1.658,0,0,0,3.315,0,3.9,3.9,0,0,1,3.908-3.88A1.64,1.64,0,1,0,508.683,1845.03Zm-22.67-.04a4.866,4.866,0,0,1-4.883-4.84,1.658,1.658,0,0,0-3.315,0,8.176,8.176,0,0,0,8.2,8.13A1.645,1.645,0,1,0,486.013,1844.99Zm28.174-23.22a1.64,1.64,0,1,0,0,3.28,2.008,2.008,0,0,1,2.009,2,1.658,1.658,0,0,0,3.315,0A5.309,5.309,0,0,0,514.187,1821.77Zm-14.746,3.7a1.646,1.646,0,0,0-1.657,1.64,3.017,3.017,0,1,1-3.016-2.99,1.645,1.645,0,1,0,0-3.29,6.28,6.28,0,1,0,6.331,6.28A1.647,1.647,0,0,0,499.441,1825.47Zm29.506,9.58a6.3,6.3,0,0,0-6.316,6.26,1.658,1.658,0,0,0,3.315,0,3,3,0,1,1,3,2.97,1.645,1.645,0,1,0,0,3.29A6.26,6.26,0,1,0,528.947,1835.05Z" transform="translate(-461 -1791.5)"/>
</svg>
