<svg xmlns="http://www.w3.org/2000/svg" width="84" height="84" viewBox="0 0 84 84">
  <defs>
    <style>
      .cls-1 {
        fill: #fff;
        fill-rule: evenodd;
      }
    </style>
  </defs>
  <path class="cls-1" d="M1441.29,1824.69a1.573,1.573,0,0,0-1.12.46l-4.16,4.16-3.61-13.23,4.24-4.23a52.1,52.1,0,0,0,13.29-22.76,6.433,6.433,0,0,0-1.88-5.14,6.674,6.674,0,0,0-4.48-1.95,2.115,2.115,0,0,0-.62.07,52.054,52.054,0,0,0-22.79,13.3l-4.23,4.23-13.23-3.6,4.16-4.16a1.593,1.593,0,0,0,0-2.25,1.624,1.624,0,0,0-1.13-.47,1.588,1.588,0,0,0-1.13.47l-5.44,5.44-0.23-.06-21.23-5.79a1.523,1.523,0,0,0-.42-0.06,1.588,1.588,0,0,0-1.13.47l-7.11,7.11a1.6,1.6,0,0,0,.35,2.52l30.16,16.76-4.87,4.87a44.087,44.087,0,0,0-4.97,5.87l-0.27.39h-14.46a1.565,1.565,0,0,0-1.11.45l-7.39,7.26a1.548,1.548,0,0,0-.43,1.51,1.576,1.576,0,0,0,1.07,1.15l15.46,4.79,0.02,0.66a6.469,6.469,0,0,0,.64,2.72l0.28,0.59-2.55,2.55a1.591,1.591,0,1,0,2.25,2.25l2.54-2.54,0.59,0.28a6.55,6.55,0,0,0,2.73.64l0.66,0.01,4.78,15.45a1.6,1.6,0,0,0,1.53,1.12,1.55,1.55,0,0,0,1.11-.46l7.43-7.38a1.606,1.606,0,0,0,.47-1.13v-14.27l-0.03-.56,0.42-.3a51.9,51.9,0,0,0,6.97-5.83l3.61-3.62,16.76,30.16a1.578,1.578,0,0,0,1.39.82,1.6,1.6,0,0,0,1.13-.46l7.11-7.12a1.592,1.592,0,0,0,.41-1.54l-5.86-21.46,5.45-5.45A1.585,1.585,0,0,0,1441.29,1824.69Zm-68.5-27.23,4.96-4.97,0.24,0.07,35.34,9.64-11.43,11.43Zm10.79,41.78-12.97-4.02,5.02-4.93h11.8l-0.7,1.35a50.873,50.873,0,0,0-2.86,6.76Zm18.29,17.12-5.09,5.06-4.02-13.03,0.82-.3a51.307,51.307,0,0,0,6.93-3.14l1.36-.74v12.15Zm8.3-22.55a49.039,49.039,0,0,1-19,11.75l-3.72,1.25,9.99-9.99a1.624,1.624,0,0,0,.47-1.13,1.6,1.6,0,0,0-2.72-1.13l-9.92,9.92,1.13-3.59a40.869,40.869,0,0,1,10.54-17.79l25.47-25.48a48.977,48.977,0,0,1,21-12.37l0.18-.05,0.18,0.02a3.445,3.445,0,0,1,2.03.98,3.385,3.385,0,0,1,.98,2.07l0.02,0.18-0.05.17a48.756,48.756,0,0,1-12.36,20.97Zm29.34,20.45-4.96,4.96-16.18-29.11,11.44-11.44Zm-4.21-57.56a1.581,1.581,0,0,0-2.25,0l-3.55,3.56a1.591,1.591,0,1,0,2.25,2.25l3.55-3.56A1.576,1.576,0,0,0,1435.3,1796.7Z" transform="translate(-1366 -1782)"/>
</svg>
