<svg xmlns="http://www.w3.org/2000/svg" width="76" height="75.03" viewBox="0 0 76 75.03">
  <defs>
    <style>
      .cls-1 {
        fill: #fff;
        fill-rule: evenodd;
      }
    </style>
  </defs>
  <path class="cls-1" d="M1148.95,1798.87H1138.4a10.381,10.381,0,0,0,2.78-7.07s0-.42-0.01-0.54a9.494,9.494,0,0,0-4.92-8.02,9.748,9.748,0,0,0-9.64,0l-4.8,2.7a16.717,16.717,0,0,0-6.81,7.23,16.717,16.717,0,0,0-6.81-7.23l-4.8-2.7a9.748,9.748,0,0,0-9.64,0,9.494,9.494,0,0,0-4.92,8.02c-0.01.12-.01,0.54-0.01,0.54a10.381,10.381,0,0,0,2.78,7.07h-10.55a4.059,4.059,0,0,0-4.05,4.05v9.6a4.05,4.05,0,0,0,4.05,4.04h1.86v36.39a4.054,4.054,0,0,0,4.06,4.05h56.06a4.054,4.054,0,0,0,4.06-4.05v-36.39h1.86a4.05,4.05,0,0,0,4.05-4.04v-9.6a4.059,4.059,0,0,0-4.05-4.05m-25.48-10,4.8-2.7a6.408,6.408,0,0,1,6.33.01,6.178,6.178,0,0,1,3.2,5.2v0.42a7.087,7.087,0,0,1-7.09,7.07h-13.92A13.339,13.339,0,0,1,1123.47,1788.87Zm-4.25,64.76h-8.44v-51.39h8.44v51.39Zm-27.02-61.83v-0.42a6.178,6.178,0,0,1,3.2-5.2,6.416,6.416,0,0,1,6.33-.01l4.8,2.7a13.339,13.339,0,0,1,6.68,10h-13.92A7.087,7.087,0,0,1,1092.2,1791.8Zm-11.82,20.72v-9.6a0.672,0.672,0,0,1,.67-0.68h26.35v10.95h-26.35A0.67,0.67,0,0,1,1080.38,1812.52Zm5.91,40.43v-36.39h21.11v37.07h-20.43A0.674,0.674,0,0,1,1086.29,1852.95Zm57.42,0a0.674,0.674,0,0,1-.68.68H1122.6v-37.07h21.11v36.39Zm5.91-40.43a0.67,0.67,0,0,1-.67.67H1122.6v-10.95h26.35a0.672,0.672,0,0,1,.67.68v9.6Z" transform="translate(-1077 -1781.97)"/>
</svg>
