<svg id="arrow" xmlns="http://www.w3.org/2000/svg" width="64" height="64" viewBox="0 0 64 64"><defs><style>.cls-1{fill:#c8d419}.cls-2{fill:#fff;fill-rule:evenodd}</style></defs><circle class="cls-1" cx="32" cy="32" r="32"/><path id="Rounded_Rectangle_13" data-name="Rounded Rectangle 13" class="cls-2" d="M973.563 879.676L962.618 890.5l-.01.015-.016.01-.048.048a1.5 1.5 0 0 1-2.108 0 1.373 1.373 0 0 1-.276-.409l-10.591-10.47a1.452 1.452 0 0 1 0-2.07 1.493 1.493 0 0 1 2.093 0l8.38 8.285v-23.415a1.494 1.494 0 0 1 2.988 0v23.428l8.425-8.329a1.5 1.5 0 0 1 2.108 0 1.461 1.461 0 0 1 0 2.083z" transform="translate(-929 -843)"/></svg>