<svg id="arrow-step" xmlns="http://www.w3.org/2000/svg" width="36" height="36" viewBox="0 0 36 36"><defs><style>.cls-1{fill:#c8d419}.cls-2{fill:#fff;fill-rule:evenodd}</style></defs><circle class="cls-1" cx="18" cy="18" r="18"/><path id="Rounded_Rectangle_14" data-name="Rounded Rectangle 14" class="cls-2" d="M666.689 1820.76a.852.852 0 0 1-.273.18l-6.942 6.77a1.029 1.029 0 0 1-1.437 0 .972.972 0 0 1 0-1.4l5.432-5.3h-15.448a1 1 0 1 1 0-1.99h15.437l-5.451-5.32a.978.978 0 0 1 0-1.41 1.041 1.041 0 0 1 1.447 0l7.164 6.99c.012.01.029.01.041.02s.016.03.027.04v.01a.98.98 0 0 1 .003 1.41z" transform="translate(-639 -1802)"/></svg>