<svg id="Layer_1" xmlns="http://www.w3.org/2000/svg" viewBox="0 0 232.7 80.3"><style>.st0{fill:#fff}</style><path class="st0" d="M123.9 70.6c-.2.4-.5.6-1 .8-.5.1-1.3.2-2.3.3h-.2V73h14.7c2.1 0 4-.3 5.7-1 1.8-.6 3.3-1.6 4.5-2.7 1.3-1.2 2.2-2.5 2.9-4.1.7-1.6 1-3.3 1-5.1 0-1.9-.3-3.6-1-5.3-.7-1.6-1.6-3.1-2.8-4.2-1.2-1.2-2.7-2.1-4.3-2.8-1.7-.6-3.5-1-5.5-1h-15.3v1.3h.2c1.3.1 2.2.3 2.8.6.5.3.8.8.8 1.7v18.4c.1.8 0 1.4-.2 1.8m15.6-21.8c.6.2 1.2.5 1.7.8.9.6 1.7 1.4 2.4 2.4s1.2 2.2 1.5 3.6c.3 1.4.5 2.9.5 4.6 0 2.3-.4 4.3-1.1 6-.7 1.6-1.7 2.9-2.9 3.8-.9.6-1.8 1.1-2.9 1.4 1.1-.6 2.1-1.3 2.8-2.1 1.1-1.1 1.9-2.4 2.4-3.9s.8-3.2.8-5.1c0-5.7-1.9-9.6-5.6-11.7.1.1.2.2.4.2m-10.3 4.5c0-1.6 0-2.7.1-3.3.1-.6.3-1 .8-1.3.4-.3 1.2-.5 2.3-.5 1.6 0 3.1.2 4.3.5 1.2.4 2.3 1 3.3 1.8 2.5 2.1 3.8 5.4 3.8 9.7 0 1.4-.1 2.8-.4 3.9-.3 1.2-.7 2.2-1.4 3.1-.6.9-1.5 1.8-2.6 2.6-.9.7-1.9 1.1-2.9 1.4-1 .3-2.2.4-3.5.4-1.2 0-2.1-.1-2.6-.3-.5-.2-.8-.5-.9-1-.1-.5-.2-1.2-.2-2.3V53.3zm-3.6-4.2c.3.6.4 1.6.4 3V69c0 1-.2 1.7-.5 2.1-.2.3-.6.5-1.1.6l.2-.2c.2-.2.3-.6.4-1 .1-.4.1-1 .1-1.8V50.9c0-.8-.1-1.5-.3-1.9-.1-.3-.3-.5-.5-.7.7.1 1.1.4 1.3.8m96.4-.9h.2c1.2.1 2.1.3 2.7.8.6.5 1.1 1.2 1.3 2.3.3 1.1.4 2.6.4 4.4v8.4c0 1.6-.3 3-1 4.1-.6 1.1-1.5 2-2.7 2.5-1.1.6-2.5.8-4 .8-1.4 0-2.7-.2-3.8-.7-1.1-.5-1.9-1.2-2.5-2.2-.6-.9-.9-2.1-.9-3.4V50.8c0-.8.1-1.4.4-1.7.2-.3.6-.6 1-.7.5-.1 1.2-.2 2.2-.3h.2v-1.3h-12.8v1.3h.2c1.1.1 2 .2 2.5.3.5.1.8.3 1.1.7.3.4.4 1 .4 1.9v13.9c0 1.1.1 2.1.3 2.9.2.8.6 1.6 1.2 2.3 1.9 2.2 4.9 3.4 8.8 3.4 1.7 0 3.2-.2 4.4-.6 1.3-.4 2.4-1 3.4-1.8.9-.8 1.7-1.7 2.1-2.8.5-1.1.7-2.3.7-3.6v-9.5c0-1.4.1-2.7.3-3.7.2-1 .5-1.7 1-2.3.5-.6 1.3-.9 2.3-1.1h.2v-1.3H222v1.4zM209.6 70c-1.2-1.1-1.8-2.7-1.8-4.8V50.6c0-1.2-.3-2-.9-2.5 1.2.1 1.8.8 1.8 2.3V65c0 1.1.2 2.1.5 3 .3.9.8 1.6 1.4 2.2.6.6 1.2 1.1 1.9 1.5l.6.3c-1.5-.5-2.6-1.2-3.5-2m18.3-21.8c-.3.3-.5.6-.7.9-.2.3-.3.7-.4 1.1-.3-.9-.8-1.6-1.5-2h2.6zm-147.7 23c-.5.2-1.1.3-2.1.4h-.2V73h11.2v-1.3H89c-1-.2-1.7-.5-2.2-.9-.5-.4-.9-1.2-1.4-2.4L77 46.7v-.1h-1.8l-4.6 1.6v1.2h.2c.7.1 1.2.2 1.5.4.3.2.6.5.9 1l-6.3 16.1c-1.1 2.9-2.6 4.5-4.4 4.8h-.1V73h8.8v-1.3H71c-.9 0-1.5-.3-2-.9-.5-.6-.7-1.3-.7-2 0-.8.2-1.6.5-2.4l1.2-3h8.4l2 5.1c.3.8.5 1.4.5 1.8-.1.4-.3.7-.7.9m-15.2.4c.4-.3.8-.7 1-1l.6-.9c0 .8.3 1.4.9 2H65zm5.4-9.9l3.6-9.2 3.6 9.2h-7.2zm4.3-10.3c-.3-.7-.6-1.3-.9-1.7-.2-.3-.5-.6-.9-.8h.2c.6 0 1 .2 1.3.5.3.3.6.9.9 1.7l6.5 16.6c.4 1.1.6 2 .6 2.6 0 .4-.1.7-.4 1-.3.3-.6.4-1.1.4l.4-.4c.2-.2.2-.5.2-.9 0-.6-.2-1.3-.6-2.3l-6.2-16.7zM10.1 72.1c2.2.9 4.7 1.3 7.4 1.3 1.5 0 3-.1 4.5-.4 1.5-.3 3-.7 4.5-1.2s2.9-1.1 4.2-1.8v-5.2c0-1.5.1-2.6.3-3.2.2-.6.6-1.1 1.2-1.3.6-.2 1.7-.4 3.2-.6v-1.3H20.3v1.3c1.5.1 2.6.3 3.2.6.6.3 1 .7 1.2 1.3.2.6.2 1.7.2 3.3 0 1-.1 1.8-.2 2.5s-.4 1.3-.8 1.9c-.5.8-1.3 1.4-2.4 1.8-1 .5-2.2.7-3.4.7-2.1 0-4-.7-5.7-2-1.7-1.3-3.1-3.2-4.2-5.5-1-2.4-1.5-5.1-1.5-8.1 0-3.1.5-5.8 1.4-8.1.9-2.4 2.2-4.2 3.9-5.5 1.7-1.3 3.6-2 5.8-2 1.1 0 2.2.2 3.3.5 1.1.4 2.1.9 3.1 1.7 1 .7 1.9 1.7 2.8 2.9.9 1.2 1.7 2.5 2.4 3.9h1.3l-.4-10.4h-1.7c-.6.8-1.6 1.2-3 1.2-.5 0-1.9-.2-4-.7-2.1-.5-4-.7-5.6-.7-2.4 0-4.6.5-6.6 1.4-2 .9-3.7 2.2-5.1 3.9C3 46 1.9 47.8 1.1 50 .4 52.1 0 54.2 0 56.5s.4 4.4 1.2 6.5c.8 2.1 1.9 3.9 3.4 5.5 1.5 1.5 3.3 2.8 5.5 3.6M25 69.2c.5-.9.8-1.9.8-2.8v-3.1c0-1-.2-1.7-.5-2.2-.3-.5-.7-1-1.3-1.4 1 .1 1.8.4 2.3.7.5.4.8.9.9 1.6.1.7.2 1.8.2 3.3 0 1.3-.1 2.3-.4 3.1-.3.8-.8 1.4-1.5 1.9s-1.6.9-2.9 1.1c1.1-.5 1.9-1.3 2.4-2.2m-.8-27.8c.3.1.7.1.9.2.3 0 .6.1.9.1.5 0 1-.1 1.7-.4l.3 4.3c-1.5-1.9-3.1-3.3-4.7-4.3.4 0 .6.1.9.1M.8 56.4c0-1.7.3-3.4.8-5.1.5-1.6 1.2-3.2 2.2-4.6 1-1.5 2-2.7 3.2-3.7 1.2-1 2.5-1.8 3.8-2.3.7-.3 1.6-.5 2.7-.7-1.1.5-2 1-2.8 1.4-.8.4-1.6 1.1-2.5 1.9C6.4 45 5 47 3.9 49.4c-1 2.4-1.6 4.7-1.6 7 0 2 .4 4 1.2 6 .8 2 2 3.8 3.5 5.4 1.1 1.2 2.2 2.1 3.3 2.8 1.1.7 2.4 1.3 3.9 2-1.4-.3-2.5-.6-3.4-1-.9-.3-1.8-.7-2.7-1.3-.9-.5-1.8-1.2-2.7-2.1C4 66.8 2.8 65 2 62.9 1.2 60.7.8 58.6.8 56.4m116-7.7c.6-.3 1.3-.5 2.1-.5h.2v-1.4H109v1.4h.3c.5 0 1.1.1 1.7.3.6.2 1.1.5 1.4.8.4.4.8.9 1 1.6.2.7.3 1.5.3 2.5l.2 12.4-16.3-18.9-.1-.1h-7.8v1.4h.4c.7 0 1.3.2 2 .6.6.4 1.3.9 1.9 1.7l.3 14.9c0 1.3 0 2.4-.1 3.2-.1.8-.5 1.5-1.1 2.1-.6.6-1.5.9-2.7 1h-.2V73h10.1v-1.3h-.2c-.9-.1-1.7-.3-2.2-.5-.6-.3-1-.6-1.3-1-.3-.4-.5-1-.6-1.6-.1-.6-.2-1.4-.2-2.3L95.5 52l18.4 21.5h1.4l-.3-21.2c0-.9.2-1.6.5-2.3.3-.5.7-1 1.3-1.3M96 71.6h-2.8c.4-.3.7-.6.9-.9.2-.3.4-.6.6-1 .1.4.3.7.4 1 .3.3.5.6.9.9m-.6-21.1c-.7-.8-1.2-1.4-1.6-1.8-.2-.2-.5-.4-.9-.6.8 0 1.4.2 1.9.5s.9.7 1.2 1.2L112.5 69c.5.5.8.9.9 1.2.2.2.3.4.3.6.1.1.1.4.1.7v.5L95.4 50.5zm18.5-.6c-.2-.5-.5-.8-.8-1.1-.2-.2-.5-.4-.8-.6h2.7c-.5.4-.8 1-1.1 1.7m69.7 20.6c-.2.4-.5.7-1 .9-.5.2-1.3.3-2.4.3h-.4V73h22.4l2.6-6.9h-2l-.1.1c-.8 1.1-1.7 2-2.5 2.8-.8.7-1.6 1.3-2.4 1.7-.8.4-1.6.7-2.4.8-.8.2-1.7.2-2.6.2-1.1 0-2-.1-2.6-.3-.6-.2-1-.4-1.2-.8-.2-.4-.3-.9-.3-1.5V51.2c0-.8.1-1.4.3-1.9.2-.4.5-.7 1-.8.5-.2 1.2-.2 2.1-.2h.7v-1.4h-13.1v1.4h.2c1.2 0 2 .1 2.6.3.5.2.9.5 1 .9.2.4.2 1.1.2 2v17.3c.2.7.1 1.3-.1 1.7m16.2 0c.5-.4 1-.8 1.5-1.3l-1.1 2.5h-2.4c.8-.4 1.4-.8 2-1.2m-15.3-21.6c-.1-.2-.3-.5-.6-.7.8 0 1.3.3 1.5.8.2.6.3 1.5.3 2.7v17.6c0 1.7-.5 2.5-1.7 2.5h-.1c.3-.2.5-.4.6-.7.2-.4.3-.9.3-1.5V50.8c0-.9-.1-1.6-.3-1.9M45 61.2c.4 0 .8.3 1.4.8.6.6 1.5 1.7 2.6 3.2l2.6 3.3c.8 1 1.6 1.9 2.2 2.5.7.6 1.3 1.2 2 1.5.7.4 1.5.5 2.3.5h3.6v-1.3h-.1c-.4-.1-.8-.3-1.2-.5-.4-.2-.7-.5-1.1-.9l-1.2-1.2c-.4-.5-.9-1-1.5-1.8-.2-.3-.4-.5-.6-.6l-2.2-2.5c-1.1-1.4-2.1-2.5-2.9-3.3 1-.2 1.9-.5 2.7-.9.9-.4 1.6-1 2.2-1.6.6-.6 1.1-1.3 1.4-2.1.3-.8.5-1.6.5-2.4 0-1.2-.4-2.4-1.1-3.5-.7-1.1-1.8-1.9-3.1-2.6-1.4-.6-3-1-4.8-1H34.1v1.4h.2c1.2 0 2.1.1 2.7.3.5.2.9.5 1 .9.2.5.3 1.2.3 2.1v17.1c0 .9-.1 1.5-.3 1.9-.2.4-.5.6-1.1.8-.6.2-1.4.3-2.6.3h-.2V73h13v-1.4h-.2c-.2 0-.6 0-1.1-.1-.5-.1-.9-.1-1.3-.2-.6-.2-1-.5-1.2-.9-.2-.4-.3-1-.3-1.7v-7.6h2zm6.4 4.1c.9 1.1 1.7 2.1 2.5 3.1s1.6 1.8 2.3 2.5c.5.4 1 .8 1.5 1.1-.3 0-.6-.1-.9-.2-.5-.2-1.1-.5-1.8-1s-1.4-1.3-2.2-2.4c-.9-1.2-1.8-2.3-2.7-3.4-.9-1.1-1.6-2-2.2-2.7-.4-.5-.8-.9-1.2-1.2h1c.3.2.5.4.7.5.2.2.3.4.5.6.8 1 1.7 2.1 2.5 3.1M53.1 50c.8 1 1.1 2.3 1.1 3.9 0 1.7-.4 3-1.3 4-.6.7-1.3 1.1-2.2 1.4.7-.4 1.2-.9 1.6-1.4.7-.9 1-2.1 1-3.8 0-1.6-.3-2.9-.8-3.9-.4-.7-.9-1.3-1.6-1.8 1 .4 1.7.9 2.2 1.6m-9.9 1.7c0-.9.1-1.7.2-2.2.1-.5.4-.8.9-1 .5-.2 1.1-.4 2.1-.4.9 0 1.7.1 2.3.2.6.1 1.1.4 1.7.7 1.5 1 2.2 2.7 2.2 4.9 0 1.9-.5 3.3-1.4 4.2-.5.5-1.2.9-2.1 1.2-1 .3-1.9.5-2.9.5h-2.8v-8.1zM40 70c0 .9-.5 1.5-1.6 1.6.5-.5.8-1.2.8-2.1V51.4c0-1.1-.1-1.9-.3-2.3-.1-.3-.4-.6-.7-.9.4 0 .7.1.9.3.3.2.5.5.6 1 .1.5.1 1.2.1 2.1V70zm136-18.4c.7-1.1 1-2.3 1-3.5 0-1.2-.3-2.3-.8-3.3s-1.3-1.9-2.2-2.7c-.9-.8-2.1-1.4-3.5-1.8-1.4-.4-2.9-.6-4.5-.6h-18.4V41c1.6 0 2.7.1 3.4.4.7.3 1.1.7 1.3 1.3.2.6.3 1.5.3 2.7v20.8c0 1.4-.1 2.5-.2 3.1-.1.7-.5 1.2-1.1 1.6-.6.4-1.7.6-3.1.6h-.5v1.3h19.2c1.6 0 3.2-.2 4.5-.6 1.4-.4 2.6-1 3.5-1.7 1-.7 1.7-1.6 2.2-2.6.5-1 .8-2.1.8-3.3 0-2.3-.8-4.2-2.5-5.8-1.7-1.5-4.1-2.5-7.3-2.9 1.9-.3 3.6-.8 4.9-1.5 1.4-.8 2.4-1.7 3-2.8m-17.4-7c0-1.3.3-2.3 1-2.8.6-.5 1.8-.8 3.6-.8 1.4 0 2.4.1 3.3.3.8.2 1.5.6 2.2 1.4.6.6 1.1 1.4 1.5 2.4.4 1 .5 2 .5 3.2 0 1.4-.3 2.7-.8 3.8-.6 1.1-1.3 1.9-2.2 2.4-1 .5-2.5.8-4.6.8h-4.4V44.6zM155 67.7c0 1.1-.2 2-.5 2.8-.3.7-1.1 1.1-2.3 1.1h-.7c.7-.3 1.2-.7 1.5-1.2.3-.5.5-1.3.5-2.5V44.6c0-1.2-.1-2-.4-2.5-.3-.5-.8-.9-1.5-1.1h.5c1.1 0 1.9.3 2.3.8.4.5.6 1.3.6 2.4v23.5zm9.2 3.8c-1.1 0-2 0-2.7-.1-.7-.1-1.2-.3-1.7-.5-.4-.3-.8-.6-1-1.1-.2-.5-.3-1.1-.3-1.9V56.4h5.4c1.5 0 2.9.3 4 .9 1.1.6 2 1.5 2.5 2.7.6 1.2.9 2.5.9 4.1 0 1.6-.3 2.9-.8 4s-1.3 1.9-2.4 2.5c-1 .6-2.3.9-3.9.9m7.7-12.8c1.1 1.3 1.7 3.1 1.7 5.2 0 2.3-.5 4.1-1.6 5.5-1 1.3-2.6 2.1-4.6 2.4 3.1-1.1 4.7-3.6 4.7-7.5 0-2.1-.4-3.7-1.2-5-.8-1.3-2-2.2-3.6-2.8 1.9.1 3.5.8 4.6 2.2m-4.3-3.6c2.6-1.3 3.9-3.5 3.9-6.8 0-1.8-.3-3.3-1-4.6-.7-1.3-1.7-2.2-3-2.7 1.2.1 2.2.5 3 1.1.8.7 1.4 1.5 1.8 2.5.4 1 .6 2.2.6 3.4 0 3.8-1.8 6.2-5.3 7.1m-28.3-33.2c.2.2.4.5.4.8l.1.1h.1v.1c.2.6 0 1.8-.6 2.1-.2.1-.5.1-.7.2-.1 0-.3 0-.4.1-.6.2-1 .6-1.3 1.1-.8 1.2-.5 2.9.8 5 .3.8 1.2 1.6 1.6 1.9h.1c.3.5.7 1 1.4 1.2.2.2.4.4.7.4h.1c0 .1 0 .2.1.3.2.5.5.9.9 1.3s.6.7.9 1.2c.1.1.1.2.2.4v.2l.1.1.1-.1v-.1c-.2-1.3.6-2.5 1.5-3.6.3-.4.5-.7.7-1 .3-.4.3-.9.2-1.3 0-.1 0-.2.1-.3.2-1.2.4-2.3 0-3.5-.1-.2-.2-.4-.3-.7.2 0 .4-.1.5-.2.1-.1.1-.2.2-.3.1.3.2.6.3 1 .2.8.2 1.6.1 2.3v.7c0 .7.2 1.7.8 2.4.3.3.7.5 1.1.5.1.4.3.8.7 1.2.3.3.7.5 1.2.5.3 0 .6-.1.9-.1.5.5 1.3.8 2.2.8.1 0 .2 0 .3-.1.5.4 1 .6 1.5.6.3 0 .6-.1.9-.3.3.2.6.2 1 .2.7 0 1.4-.3 1.9-.8 1.4.9 2.9 1.1 4.5 1.2.4.1.9.2 1.4.2.3 0 .7 0 1-.1l.1-.1-.1-.1h-.5c-.3 0-.5 0-.8-.1h-.2c-1.3-.3-2.4-1.1-3.5-2l-.1-.1c-.4-.3-.8-.7-1.2-1-.4-.5-.8-1.1-1.1-1.6-.4-.6-.6-1.3-.8-1.9-.1-.4-.3-.8-.4-1.1-.2-.5-.6-.9-1-1.3-.6-1.8-2.4-3-3.4-3.6-1.1-.6-2.4-.8-3.6-.9v-.2l-.1-.2v-.2c0-.1-.1-.2-.1-.3.5.1 1 .4 1.4.7.3.2.6.3.9.5l.1.1c.1.1.2.1.2.1l.2-.1c.2-.1.3-.2.4-.4 0-.2 0-.4-.2-.5-.3-.8-1.4-1.7-2-2.1l-.1-.1c-.7-.5-1.6-.9-2.5-1.1.1 0 .2 0 .3-.1.1 0 .2.1.3.1.1 0 .2-.1.3-.2.1-.1.1-.3 0-.4-.4-1.1-1.9-1.3-2.9-1.4-.1 0-.3 0-.4-.1-.5-.1-1-.1-1.5-.1h-.4c.3-.1.5-.3.6-.5V17l-.2-.1h-.3c-.3 0-.6-.1-.9-.1-1.9 0-3.4.8-4.2 2.1-.4.7-.6 1.5-.5 2.3.5.1.7.4.9.7m4.2 14.3c-.1-.3-.3-.6-.4-.8-.2-.4-.4-.7-.5-1.1-.2-.8-.6-1.7-1.3-2.3h-.2v.1c.6.6.6 1.1.6 1.7l-.1-.3c-.1-.2-.1-.4-.2-.6 0-.1-.1-.3-.1-.4-.2-.5-.4-1.1-.8-1.6h-.2v.1c.3.5.3.9.3 1.4-.5-.9-1-1.8-1.1-2.8l-.1-.1-.1.1c-.2.9-.2 1.6-.1 2.2-.3-.7-.3-1.5-.3-2.3 0-.6 0-1.3-.2-2h-.2v.1c0 .4-.1.8-.3 1.2 0-.3 0-.6-.1-.9-.2-1.3 0-2 .8-2.2.1 0 .3 0 .4-.1.2 0 .4-.1.6-.1.3-.1.6-.3.7-.7.2-.5.2-1.3 0-1.9 3.5 3.4 3.3 8.9 2.9 13.3m.3.9V37l.1-.2c-.1.1-.1.2-.1.3m15.5-3.1c.9 1 2 2.1 3.5 2.9-1.1-.3-2.1-.6-2.9-1.1-1-.6-1.9-1.3-2.8-2.1-.3-.3-.7-.6-1-.8h-.2v.1c1.2 1.1 2.3 2.1 3.5 2.9-.2 0-.3.1-.5.1-.3.1-.7.2-1 .2h-.4l-.2-.1c-.5-.2-.8-.8-1.1-1.3l-.1-.1c-.1-.2-.3-.5-.4-.7-.5-.8-1-1.7-1.7-2.2h-.2v.1c.7.6 1.1 1.5 1.5 2.3.3.7.6 1.4 1.1 2l.1.1c-.7.2-1.2-.1-1.6-.8-.3-.6-.7-1.1-1-1.6-.3-.4-.5-.8-.8-1.2-.3-.5-.5-1-.8-1.5-.5-1.2-1.1-2.4-2.2-3.2l-.2.1v.1c1.2 1 1.8 2.6 2.3 4.1.3.9.6 1.7 1 2.4.1.2.2.4.4.5-1-.2-1.5-.7-1.9-1.7-.4-.8-.6-1.7-.9-2.6-.2-.7-.4-1.4-.7-2h-.2v.1c.3.8.5 1.7.7 2.6.2.9.4 1.9.7 2.8 0 .1.1.2.1.3-1.2-.6-2-1.7-2.2-3 0-.3 0-.6-.1-1 0-.8 0-1.7-.5-2.4h-.2v.1c.3.5.3 1.1.2 1.7v.5c0 .9.1 1.7.2 2.4-.5-.3-.8-.6-1-1.3-.1-.5-.1-1.1 0-1.7v-.9c0-2-1-3.6-2.9-4.8l-.2.1v.1c.5.5 1 .9 1.3 1.5-.2-.1-.5-.4-.7-.6l-.6-.6c-.9-.6-1.9-1.1-3.2-1.4l-.1.1.1.1c1 .4 1.9.7 2.6 1.5.4.4.8 1.1 1.1 1.7-.3-.2-.6-.3-1-.3l-.1.1v.2c1.2 1 1.5 2.8 1.6 4.4-.2-.3-.5-.5-.9-.8h-.2v.1c1.1 1.2.1 3.4-.3 4.3l-.3.6c.6-2.1.2-4.2-.3-6.4-.7-3-1.9-5-3.5-6.4 1.4 0 2.8.3 4.6.6 2.9.7 5.3 1.7 7.3 3s3.5 3.2 5 5.1c.9 1.2 1.5 1.9 2.2 2.7m-13.1-10.6c.3.1.5.2.8.3-.8-.3-1.6-.5-2.4-.6h.7c.8 0 1.5.1 2.1.4-.4 0-.8-.1-1.2-.2l-.1.1h.1zm6.2 1.4c1.8.5 2.9 1.5 3.9 2.7l-1.2-.6c-.5-.2-1.1-.5-1.6-.8l-.2.1v.1c.5.3.9.6 1.4.8.3.1.5.3.8.4.7.4 1.2 1.4 1.5 2.2.1.3.3.6.4.9.2.4.4.7.6 1.1l-.4-.4c-.5-.5-.9-.9-1.3-1.4-1.5-1.6-3.1-3.3-5.2-4.5-1.3-.7-2.6-1.3-4-1.8.9.3 1.8.4 2.7.5.9.3 1.8.5 2.6.7m-2.5-3.9c.3.2.6.4.8.6-.5-.4-1-.7-1.6-1 .3.1.6.2.8.4m-9.5-2.6c.6-.6 1.3-.8 2-.9l-.2.1h-.1c-.6.3-1.4.9-1.6 1.7v.1h.1l.1-.1c.2-.5.8-.8 1.4-1 1.3-.4 2.6-.3 3.8.2.3.1.6.3.9.4h-1.2c-.7 0-1.5 0-2.2-.2l-.1.1.1.1c.5.1 1 .2 1.4.3.6.1 1.2.2 1.8.4.1 0 .3.1.4.1.2.1.3.1.5.2-.9-.3-1.8-.4-2.6-.4-2 0-3.5.8-4.4 2.3v.1l.1.1.1-.1c.7-1.2 1.8-1.8 3.4-1.8.8 0 1.6.1 2.7.4 1.4.4 3.1.9 4.4 1.9-.2-.1-.5-.1-.8-.2-.5-.1-1-.1-1.5-.1-.5-.1-1-.1-1.3-.2h-.1c-.5 0-1-.1-1.6-.1-1.3 0-2.4.2-3.3.6l-.1.1.1.1c1.5-.5 3-.5 4.4-.1.1 0 .2.1.4.1h-.3c-1.1-.1-2.1 0-3.2.2h-.1c-1.1-.2-2.2-.3-3.3-.3h-.4l.1-.1.1-.4c0-.2 0-.3-.1-.4-.4-.3-.7-.6-.8-1.1 0-.6.5-1.5 1-2.1m-27.2 18.5c.2-.2.1-.5.1-.7h.1c.1.2.1.6 0 .8-.1.3-.4.5-.7.5-.3 0-.7-.3-.9-.6-.1-.3.1-.5.3-.7-.2.2-.2.4 0 .6.2.2.4.3.7.3.1 0 .3-.1.4-.2m-3.3-4.8c-2.2.2-3.9.4-3.8 1 .1.6 10.7 3.1 11.5 2.7.8-.5-.3-1.3.4-1.8.4-.3 2.9 1.4 5 2.2.3-.3.6-.5.9-.8-2.1-.4-4.9-2-4.9-2s3 .4 4.4.6c.5.1 1 .2 1.5.4l.2-.2c-.3-.1-.7-.2-1.1-.3-2.2-.4-11.8-1.9-14.1-1.8m2.7 2.6l-2.4-2.1 2.9.2 2.8 2.7-3.3-.8zm4.5.9l-3.1-2.8 2.4.1 1.1 1.3c-.1.1.7 1.8-.4 1.4m-6 1.9c.1.2.1.6 0 .8 0 .1-.1.2-.1.2-.1-.1-.2-.1-.3-.2.1 0 .2-.1.3-.2.1 0 .1-.3.1-.6zm3-.4c-.1.8-.8 1.2-1.6 1.2-.2 0-.3-.1-.5-.1v.1c0 .3-.1.5-.3.7-.2-.1-.3-.2-.5-.2.1-.1.2-.2.3-.4.1-.1.1-.2.1-.4-.4-.2-.6-.6-.7-1.1-.1-.1-.2-.1-.3-.2-.3 0-.5.1-.6.2-.3.2-.5.4-.6.8-.1-.1-.2-.1-.3-.2.2-.2.4-.4.6-.5.4-.2.8-.2 1-.2h.2c0-.2 0-.4.1-.5l.1-.1V36c.1-.2.3-.3.5-.4.4-.4.8-.1.6-.1-.1 0-.3.1-.4.2l-.2.1c-.2.2-.3.6-.2 1 .1.6.6.9 1.1 1 1.3.2 1.7-1.7.6-2.2h.2c.6 0 .9.8.8 1.4M135 26.6c.2.9.4 2 .2 2.7-.5-.5-1.1-.4-1.5.3-.1.2-.1.4 0 .5.1.3.6.4.9.4.2 0 .5 0 .7-.1l.1.1c.3.5.5 1 .6 1.3.3.9.2 1.9-.4 2.6-.5-.7-1.3-1.3-2.1-1.3-.4 0-1 .2-1.4 1-.2.4-.2.8 0 1.1.4.6 1.3.8 2.1.8.4 0 .8-.1 1.1-.2l.2-.1c.1.3.1.6.1.9 0 1.1-.3 2.1-1 2.8-.9.9-2.2 1.3-3.8 1.3-1.7 0-3.4-.6-4.4-1.5h-.2v.1c1.4 1.1 3.1 1.8 4.7 1.8.7 0 1.3-.1 1.9-.3 2.1-.8 4-3.1 3.3-5.6.9-.9 1-2.5.4-4.2-.1-.1-.3-.6-.6-1.1.5-.9.2-1.9 0-2.8l-.1-.2c-.3-1.2-.2-2.2.4-3 .5-.7 1.2-1.1 2-1.1.4 0 .9.1 1.2.3.1.1.2 0 .3-.1l-.1-.2c-.4-.4-1-.6-1.5-.6-1.5 0-3 1.4-3.1 3-.2.3-.1.9 0 1.4m-.5 3.3c0-.1.1-.1.2-.1l.1.1h-.3m-.6 5.3c-.3 0-.5-.1-.8-.2v-.2c.1-.3.1-.5.2-.8.4-.1.7 0 1 .2.3.2.5.4.6.7-.3.2-.7.3-1 .3m-24.1 2.2c-.1.1-.2.2-.2.3h-.1c.2-.1.2-.2.3-.3M103.7 15c.5-.1 1.8-.8 2.4-.6-.2.3-.2.6.3.8.4.2.4-.6.2-.9l.1-.1c.2-.2.5-.4.7-.5.5-.3 1.2-.3 1.6 0-.6.6-.9 1.7.1 2 1 .3 1-1.3.6-1.9l-.1-.1c.2-.1.4-.2.6-.2.5-.1.9-.1 1.2.1l.1-.1c-.7-.3-1.5-.4-2.2 0-.7-.5-1.7-.2-2.4.2-.2.1-.4.3-.6.5-.6-.2-1.2.1-1.7.4-.6.3-1.2.4-1.8.1-.7-.3-1-1.1-.8-1.8h-.1c-.6.9.6 2.2 1.8 2.1m5.8-.5v.5h-.7c-.1-.2-.1-.4 0-.6.1-.2.2-.4.4-.5.1.1.2.3.3.6m-3.2-.1c.1.1.1.2.1.3 0 .3-.2 0-.2-.1l.1-.2zm-1.3-1.7c.6.2 1.3.3 1.9-.1.3-.2.5-.6.7-.8.3-.5 1-.8 1.6-.9 1.3-.2 2.5.4 3.4 1.3-.7-.6-1.5-1.1-2.4-1.1-.5 0-.8.1-1.1.3.8-.2 1.7 0 2.3.4.6.4 1.1.8 1.4 1.4h-.1c-.3-.4-.7-.8-1.1-1.1-.6-.4-2-.8-2.6-.2.2 0 .3.2.3.4 0 .1-.1 0 .1.1h.2c.3 0 .4-.1.7-.2.8-.2 1.4.6 1.9 1.1-.5-.3-.9-.8-1.4-.9-.4 0-.9.4-1.3.5-.3.1-.6.1-.8-.2-.1-.1-.1-.2-.1-.3l-.2-.1-.1.1c-1.1.6-2.2.9-3.3.3M91.1 23c0 .1.2.2.3.1.4-.2.8-.3 1.2-.3.8 0 1.5.4 2 1.1.6.8.7 1.8.4 3v.2c-.2.9-.5 2 0 2.8-.3.5-.5 1-.6 1.1-.7 1.7-.5 3.3.4 4.2-.7 2.5 1.1 4.9 3.3 5.6.6.2 1.3.3 1.9.3 1.6 0 3.3-.6 4.7-1.8v-.1l-.2-.1c-1.1.9-2.8 1.5-4.4 1.5-1.6 0-2.9-.5-3.8-1.3-.7-.7-1-1.6-1-2.8 0-.3 0-.6.1-.9l.2.1c.3.1.7.2 1.1.2.8 0 1.7-.3 2.1-.8.2-.3.2-.7 0-1.1-.4-.8-1-1-1.4-1-.8 0-1.6.7-2.1 1.3-.6-.7-.8-1.7-.4-2.6.1-.4.3-.9.6-1.3l.1-.1c.2.1.4.1.7.1.3 0 .8-.1.9-.4.1-.1.1-.3 0-.5-.4-.7-.9-.8-1.5-.3-.2-.7 0-1.8.2-2.7.1-.6.2-1.1.2-1.4-.1-1.6-1.6-3-3.1-3-.6 0-1.1.2-1.5.6l-.4.3m5.3 11.2c.3-.2.6-.3 1-.2.1.3.1.5.2.8v.2c-.3.1-.5.1-.8.1h-.1c-.4 0-.7-.1-1-.3.2-.2.4-.4.7-.6m-.4-4.5l.3.1h-.4l.1-.1zm18.3-14.6c.2.2.4.5.5.7-.2 0-.3.1-.3.3l.1.1.3-.1.1-.1c.1.1.3.2.4.3.2.2.4.5.3.7-.2-.1-.5-.1-.8 0-.1.1-.2.2-.2.5 0 .1.1.2.2.3.2.1.5 0 .7-.1l.2-.2.2.2c.2.3.3.6.2.9-.1.4-.4.7-.8 1-.4.3-1 .4-1.4.3.6.1 1.1-.1 1.5-.3.2-.1.3-.2.5-.4.4-.5.5-1.5-.1-2 .1-.4-.1-.8-.6-1.2 0 0-.2-.1-.3-.2 0-.3-.3-.5-.5-.7h-.1c-.3-.3-.4-.5-.4-.9 0-.2.1-.5.3-.6.1-.1.2-.1.4-.1l.1-.1h-.1c-.2 0-.3 0-.5.1-.4.3-.6.9-.3 1.3.2 0 .3.1.4.3m.4.9zm.7 1.5l-.2.1v-.1l-.1-.2c.1-.1.2-.1.3-.1.1 0 .2 0 .3.1-.1 0-.2.1-.3.2m.3-3.8c.7.3 1.2.9 1.6 1.6-.1-.1-.3-.1-.5-.2-.1 0-.2-.1-.3-.1h-.2l-.1-.1c-.1-.1-.2-.1-.3-.1-.1-.1-.2-.2-.3-.4l-.3-.1.1-.1.1-.1c.2 0 .3-.2.2-.4m-1.1-.6c.1 0 .2.1.2.1h.1c.2.1.3.5.2.7l-.2.2-.1.1c-.1.1-.2.3-.2.5 0 .5.3.8 1 1.2.2.2.6.2.7.2.1.1.4.2.6.1h.3l.1.1c.1.1.3.2.4.2.2 0 .3.1.4.2l.1.1v.1h.1c-.3-.3-.2-.7-.2-1.2v-.4c0-.2-.1-.3-.2-.4v-.1c-.1-.3-.3-.7-.6-.9l-.2-.1.1-.1v-.1l.2.2c.2.2.3.4.4.6l.1.2c.1.2.3.4.6.5h.4c.1.1.2.2.4.2.1 0 .3 0 .4-.1l.2-.2c.2 0 .5 0 .7-.2l.1-.1c.2 0 .4 0 .5-.1l.2-.2c.1 0 .2 0 .3-.1.2-.1.3-.3.4-.5.5 0 1-.2 1.4-.4.1 0 .3-.1.4-.2l.2-.2v-.1h-.1l-.1.1-.2.1c-.4.1-.8.1-1.3 0h-.1c-.2 0-.3 0-.5-.1s-.4-.1-.6-.2c-.2-.1-.4-.2-.5-.4-.1-.1-.2-.2-.3-.2-.1-.1-.3-.2-.5-.2-.4-.4-1.1-.4-1.5-.4-.4 0-.8.2-1.1.4l-.1-.1v-.1l-.1-.1c.2-.1.3-.1.5-.1h.4v-.3l-.1-.1c-.2-.2-.6-.2-.9-.2-.3 0-.6 0-.8.1l.1-.1h.1l.1-.1-.1-.1c-.3-.2-.7 0-1 .1l-.1.1c-.1.1-.3.1-.4.2l-.1.1c0-.1.1-.2.1-.2V11h-.1l-.2.1c-.5.3-.8.8-.8 1.2 0 .2.1.5.2.7.4 0 .5.1.6.1m3.7 3.3zm-.5-.4c-.1-.1-.2-.1-.3-.2-.2-.2-.4-.3-.7-.4.2.1.3.2.4.4h-.1l-.2-.1-.1-.1c-.1-.1-.3-.2-.5-.3.2.1.2.2.3.3-.3-.1-.6-.3-.7-.5l.3.6c-.2-.1-.3-.3-.5-.6-.1-.2-.2-.3-.4-.5h-.1c.1.1.1.2.1.4l-.2-.2c-.3-.3-.3-.5-.2-.7l.1-.1.1-.1c.1-.1.1-.2.1-.3 0-.2-.2-.4-.3-.5 1.5.2 2.3 1.7 3 2.9h-.1m4.1-3c.4.1.9.2 1.4.2-.3.1-.6.2-.9.2-.4 0-.7 0-1.1-.1h-.4c.5.1.9.2 1.4.2l-.1.1c-.1.1-.1.2-.2.2h-.2c-.2 0-.4-.1-.5-.1l-.2-.1c-.3-.1-.5-.3-.8-.3.3 0 .5.2.8.4.2.1.4.3.6.3-.2.2-.3.2-.5.1s-.3-.2-.5-.3c-.1-.1-.3-.1-.4-.2-.1-.1-.3-.2-.4-.3-.3-.2-.7-.5-1.1-.5.5.1.9.4 1.3.7.2.2.4.4.7.5l.2.1c-.3.1-.5.1-.8-.1-.2-.2-.4-.4-.7-.5-.2-.1-.3-.3-.5-.4h-.1l.6.6c.2.2.4.4.7.6h.1c-.4 0-.8-.1-1.1-.4-.1-.1-.1-.2-.2-.3-.1-.2-.3-.4-.5-.5.1.1.3.3.3.4l.1.1c.2.2.3.4.5.6-.2 0-.3 0-.5-.2-.1-.1-.2-.3-.3-.4l-.1-.3c-.3-.5-.9-.8-1.6-.8.2 0 .4.1.6.2-.1 0-.2 0-.3-.1l-.3-.1c-.3 0-.7 0-1.1.1.3-.1.6-.1.9 0 .2 0 .4.2.6.3-.1 0-.2 0-.3.1.5.1.8.5 1.1.9-.1 0-.2-.1-.4-.1.5.1.6.9.6 1.2v.2c-.2-.6-.6-1.1-1.1-1.6-.7-.7-1.3-1-2-1.1.4-.2.8-.4 1.3-.6.9-.3 1.7-.4 2.4-.4s1.5.3 2.1.5c.3.8.6.9.9 1m-4.1-1c.2-.1.5-.2.8-.3.5-.2 1-.1 1.5.1h-.4c-.2 0-.4.1-.5.1h.8c.3 0 .5.2.8.3l.2.2c.1.1.2.1.3.2h-.1c-.2 0-.4-.1-.6-.1-.7-.2-1.4-.4-2.1-.3-.7 0-1.5.2-2.1.4l.2-.1.6-.3c-.1.1-.2.1-.3.1.2 0 .5-.1.9-.3m-.5-.9h.3-.6.3m-3 .9c0-.3.2-.4.4-.6v.1c-.1.2-.2.5-.1.7 0-.2.1-.3.2-.5.3-.3.6-.5 1-.6h.3-.1l-.3.1-.6.3c.1 0 .3-.1.4-.2.2-.1.4-.1.5-.2h.2c-.3.1-.5.2-.8.3-.5.3-.8.8-.8 1.3 0-.4.2-.8.6-1 .2-.1.4-.2.8-.3.4-.1.9-.3 1.5-.2l-.2.1c-.2.1-.3.1-.4.2-.1.1-.3.1-.4.2-.1.1-.3.2-.4.2-.3.2-.6.4-.8.7h.1c.3-.4.7-.6 1.1-.8h.1-.1c-.3.2-.6.3-.8.6-.3.1-.6.3-.9.5l-.1.1v-.1l-.1-.1c-.2 0-.3-.1-.4-.2.1 0 .1-.4.1-.6m-18.4 8.5v.4c.3 2 .7 3.2.7 3.2 4.2 16.1 16.3 18.8 18.6 19.6 2.3-.7 14.4-3.5 18.6-19.6 0 0 .4-1.2.7-3.2v-.4c0-.3.1-.6.1-.9.4-3.6.4-9.2-1.8-15.3 0 0-12.4 4.3-17.7-4.3-5.1 8.6-17.5 4.3-17.5 4.3-2.2 6.2-2.2 11.7-1.8 15.3 0 .4.1.6.1.9m3-14.8s11.5 4 16.4-4.1c4.9 8.1 16.4 4.1 16.4 4.1 2 5.8 2 11 1.7 14.4 0 .3-.1.5-.1.8v.3c-.3 1.9-.6 3-.6 3-3.9 15.2-15.1 17.8-17.3 18.4-2.2-.7-13.4-3.3-17.3-18.4 0 0-.4-1.1-.6-3v-.3c0-.3-.1-.5-.1-.8-.6-3.4-.6-8.7 1.5-14.4M118 13h.2-.2zM64.8 37.7c.5 0 1-.1 1.4-.2 1.6-.1 3.1-.3 4.5-1.2.5.5 1.2.8 1.9.8.4 0 .7-.1 1-.2.3.2.6.3.9.3.5 0 1-.2 1.5-.6.1.1.2.1.3.1.9 0 1.7-.3 2.2-.8.3.1.6.1.9.1.5 0 .9-.1 1.2-.5.4-.4.6-.8.7-1.2.4 0 .8-.2 1.1-.5.6-.6.8-1.6.8-2.4v-.7c0-.8-.1-1.6.1-2.3.1-.3.2-.7.3-1 0 .1.1.2.2.3.1.1.3.2.5.2-.1.2-.2.4-.3.7-.4 1.2-.2 2.3 0 3.5v.3c-.1.4 0 .9.2 1.3.2.3.5.7.7 1 .8 1.1 1.7 2.3 1.5 3.6v.1l.1.1.1-.1v-.2c.1-.1.2-.3.2-.4.2-.4.5-.8.9-1.2.4-.4.7-.8.9-1.3 0-.1.1-.2.1-.3h.1c.3-.1.5-.2.7-.4.7-.1 1.1-.7 1.4-1.2h.1c.4-.3 1.3-1.1 1.6-1.9 1.4-2.1 1.7-3.8.8-5-.3-.5-.7-.9-1.3-1.1-.1 0-.2 0-.4-.1-.3 0-.5-.1-.7-.2-.6-.3-.7-1.5-.6-2.1v-.1h.1l.1-.1c0-.3.2-.6.4-.8.2-.3.4-.5.5-.9.1-.8-.1-1.6-.5-2.3-.8-1.3-2.4-2.1-4.2-2.1-.3 0-.6 0-.9.1h-.3l-.2.1v.2c.2.2.4.4.6.5h-.4c-.5 0-.9 0-1.5.1-.1 0-.3 0-.4.1-1.1.1-2.5.3-2.9 1.4-.1.1 0 .3 0 .4.1.1.2.2.3.2.1 0 .2 0 .3-.1.1 0 .2.1.3.1-.9.3-1.7.6-2.5 1.1l-.1.1c-.6.4-1.7 1.2-2 2.1-.1.1-.2.3-.2.5s.2.4.4.4h.7c.1 0 .2 0 .2-.1l.1-.1c.3-.1.6-.3.9-.5.5-.3.9-.5 1.4-.7-.1.1-.1.2-.1.3v.2l-.1.2v.2c-1.2.1-2.4.3-3.6.9-1.1.6-2.8 1.8-3.4 3.6-.4.3-.7.7-1 1.3-.2.4-.3.8-.4 1.1-.2.6-.4 1.3-.8 1.9-.4.6-.8 1.1-1.1 1.6-.4.3-.8.7-1.2 1l-.1.1c-1.1.9-2.2 1.7-3.5 2h-.1c-.3 0-.5.1-.8.1h-.5l-.1.1.1.1c.2.3.6.4.9.4m22-.6c0-.1 0-.2-.1-.3l.1.2v.1zm4.1-11.4c.2.1.4.1.6.1.1 0 .3 0 .4.1.7.2 1 .9.8 2.2-.1.3-.1.6-.1.9-.2-.4-.3-.7-.3-1.1v-.1h-.2c-.1.7-.2 1.3-.2 2 0 .8 0 1.6-.3 2.3.1-.6.1-1.3-.1-2.2l-.1-.1-.1.1c-.1 1-.6 1.9-1.1 2.8 0-.5 0-.9.3-1.4v-.1h-.2c-.5.4-.6 1-.8 1.6 0 .1-.1.3-.1.4 0 .2-.1.4-.2.6l-.2.1c0-.6 0-1.1.6-1.7v-.1h-.2c-.8.6-1.1 1.5-1.3 2.3-.1.4-.3.7-.5 1.1-.2.3-.3.5-.4.8-.4-4.4-.6-9.9 3.1-13-.2.6-.3 1.3 0 1.9.1.2.3.4.6.5m-10.2-4.8c.3-.1.5-.3.8-.4-.6.3-1.1.6-1.6 1 .2-.2.5-.4.8-.6m-.5 1.3c-.3 0-.5.1-.8.2 1.3-1 3-1.6 4.4-1.9 1.1-.3 1.9-.4 2.7-.4 1.6 0 2.7.6 3.4 1.8h.2v-.1c-.9-1.5-2.4-2.3-4.4-2.3-.8 0-1.7.2-2.6.4.2-.1.3-.1.5-.2.1 0 .3-.1.4-.1.6-.2 1.2-.3 1.8-.4.5-.1 1-.2 1.4-.3l.1-.1-.1-.1c-.7.1-1.5.1-2.2.2h-1.2c.3-.1.6-.2.9-.4 1.2-.5 2.4-.6 3.8-.2.6.2 1.2.5 1.4 1l.1.1h.1v-.1c-.2-.8-.9-1.4-1.6-1.7h-.1l-.2-.1c.7.1 1.4.3 2 .9.5.6 1 1.6.9 2.4-.1.5-.3.9-.8 1.1-.1.1-.2.2-.1.4l.1.4.1.1H90c-1.1 0-2.2.1-3.3.3h-.1c-1-.2-2-.3-3.2-.2h-.3c.1 0 .2-.1.4-.1 1.4-.4 2.9-.4 4.4.1l.1-.1v-.3c-1-.4-2-.6-3.3-.6-.5 0-1.1 0-1.6.1H83c-.3 0-.9 0-1.3.2-.5-.1-1-.1-1.5 0m4.1 1c-.4.1-.8.2-1.2.2.7-.2 1.4-.4 2.1-.4h.7l-2.4.6c.3-.1.5-.2.8-.3l.1-.1h-.1zm-11.1 7.5c.1-.3.3-.6.4-.9.4-.9.8-1.8 1.5-2.2.2-.1.5-.3.8-.4.5-.2 1-.5 1.4-.8v-.1l-.2-.1c-.5.3-1 .5-1.6.8l-1.2.6c.9-1.3 2.1-2.2 3.9-2.7.8-.2 1.7-.4 2.6-.5.9-.1 1.8-.3 2.7-.5-1.4.5-2.7 1-4 1.8-2.1 1.1-3.6 2.8-5.2 4.5-.4.5-.9.9-1.3 1.4-.1.1-.2.2-.3.4.1-.6.4-1 .5-1.3M71.3 34c.7-.7 1.3-1.5 1.9-2.3 1.5-1.8 3.1-3.7 5-5.1 2-1.4 4.4-2.4 7.3-3 1.7-.4 3.2-.6 4.6-.6-1.6 1.3-2.8 3.4-3.5 6.4-.5 2.2-.9 4.3-.3 6.4l-.3-.6c-.5-.9-1.5-3.1-.3-4.3v-.1h-.2c-.4.3-.7.5-.9.8.1-1.6.4-3.4 1.6-4.4V27l-.1-.1c-.4 0-.7.1-1 .3.2-.6.7-1.3 1.1-1.7.7-.7 1.6-1.1 2.6-1.5l.1-.1-.1-.1c-1.2.3-2.2.8-3.2 1.4l-.6.6c-.2.2-.4.5-.7.6.3-.5.8-1 1.3-1.5v-.1l-.2-.1c-2 1.2-2.9 2.8-2.9 4.8v.9c0 .6.1 1.2 0 1.7-.1.7-.5 1-1 1.3.1-.7.2-1.5.2-2.4v-.5c0-.6 0-1.2.2-1.7v-.1h-.2c-.4.7-.5 1.5-.5 2.4 0 .4 0 .7-.1 1-.2 1.3-1 2.4-2.2 3 0-.1.1-.2.1-.3.3-.9.5-1.9.7-2.8.2-.9.4-1.8.7-2.6v-.1h-.2c-.2.7-.5 1.3-.7 2-.3.9-.5 1.8-.9 2.6-.4 1-1 1.5-1.9 1.7.1-.2.3-.4.4-.5.4-.7.7-1.6 1-2.4.5-1.6 1.1-3.2 2.3-4.2v-.1h-.2c-1 .7-1.6 2-2.1 3.2-.1.4-.3.9-.6 1.4-.2.4-.5.8-.8 1.2-.4.5-.7 1-1 1.6-.4.7-.9.9-1.6.8l.1-.1c.5-.6.8-1.3 1.1-2 .4-.9.7-1.7 1.5-2.4V32h-.2c-.8.6-1.3 1.4-1.7 2.2-.1.2-.3.5-.4.7l-.1.1c-.3.5-.6 1-1.1 1.3l-.2.1h-.4c-.3 0-.7-.1-1-.2-.1-.1-.3-.1-.5-.1 1.2-.8 2.3-1.8 3.5-2.9v-.1h-.2c-.3.3-.7.5-1 .8-.9.7-1.8 1.5-2.8 2.1-.9.5-1.8.8-2.9 1.1 1.5-1 2.7-2.2 3.5-3.1m35.4-16c-.2.2-.2.5-.2.7 0 .2.2.4.4.6-.3-.1-.5-.4-.6-.7-.1-.3-.1-.7.2-.9.3-.3.7-.3 1-.1.3.2.4.6.4.9 0-.3-.2-.5-.4-.6-.4-.1-.6-.1-.8.1m-1.8 4.6c-.1.2-.1.5 0 .7.1.2.3.3.4.3.2.1.5-.1.6-.2-.1.2-.4.4-.7.4-.3 0-.6-.1-.7-.4-.2-.3-.1-.7.1-1 .2-.2.5-.2.8-.1-.2-.1-.5 0-.5.3m-6.1-1.4v.3c.3 1.8.6 2.8.6 2.8 3.3 12.8 12.1 15.9 15.1 16.9l.5.1s.1 0 .2.1h.1c2.4-.7 12.2-3.4 15.7-17 0 0 .3-1 .6-2.8v-.3c0-.2.1-.5.1-.8.3-3.2.3-8-1.5-13.4 0 0-2.6.9-5.8.9-3.1 0-6.8-.9-9-4.4l-.2-.2-.3.3c-2.3 3.4-5.9 4.2-9 4.2-3.2 0-5.8-.9-5.8-.9-1.9 5.4-1.9 10.2-1.5 13.4.2.3.2.6.2.8M100.7 8c1 .3 3 .8 5.4.8 3.7 0 6.6-1.2 8.7-3.4l.1-.1.1-.1.4-.5s.2.2.4.5l.1.1c.1.1.1.2.2.2 2 2.2 4.9 3.3 8.6 3.4 2.3 0 4.3-.5 5.4-.7 1.6 5 1.6 9.5 1.3 12.4 0 .3-.1.5-.1.7v.3c-.1.7-.2 1.3-.3 1.8l-.3.9c-2.2 8.6-7.3 14.1-15.1 16.5h-.1c-7.8-2.3-12.8-7.9-15-16.5l-.3-.9c-.1-.4-.2-1-.3-1.8v-.3c0-.2-.1-.5-.1-.7-.7-3.1-.7-7.6.9-12.6m1.7 14.1c-.2-.3-.1-.7.1-1 .2-.2.5-.2.8-.1-.3-.1-.5 0-.6.3-.1.2-.1.5 0 .7.1.2.3.3.4.3.2.1.4-.1.6-.2-.1.2-.4.4-.7.4-.2 0-.4-.1-.6-.4m2.3-1.6c-.1-.3 0-.6.2-.8.2-.2.7-.3 1-.1.3.1.3.4.3.7.1-.6-.7-.6-1.1-.3-.1.1-.2.3-.2.5s.2.4.4.5c-.3 0-.5-.3-.6-.5m21.2 5.3v-.7c1.3.6 2.1 1.4 2.1 2.2 0 2.2-5.7 4-12.7 4s-12.7-1.8-12.7-4c0-1.4 2.2-2.6 5.5-3.3v.3c-2.5.6-4.1 1.6-4.1 2.6 0 1.9 5.1 3.4 11.3 3.4 6.2 0 11.3-1.5 11.3-3.4 0-.3-.2-.7-.7-1.1m-22.3-2.6l.1-.1c0 .2.1.3.1.5.3.7 1 1.1 1.7.8.6-.2 1.3-.9 1-1.6h-.1c.1 1.2-1.7 1.8-2.2.5-.2-.5 0-1.1.4-1.4.5-.4 1-.4 1.5 0 0 .2.1.4.2.6.4.7 1.2 1.2 2 .8.5-.3 1-.9 1-1.5l-.2-.1c-.1.6-.5 1.2-1.1 1.3-.5.1-1-.3-1.2-.8-.3-.5-.3-1.1.2-1.5.3-.2.6-.3.9-.3v-.3c-.4-.1-.8 0-1.1.2v-.5c.3.1.7.1 1-.2l.1-.1v-.1l-.1.2c-.4.1-.7.1-1.1-.1-.1-.1-.1-.2-.2-.3-.1-.2-.3-.3-.5-.4-.2-.4-.3-.9.1-1.3.4-.5 1.1-.6 1.5-.1.1.1.2.3.3.4 0 .2.1.5.2.8 0 .1 0 .2-.1.4h.1l.1-.1.4-.3c-.1-.2-.2-.4-.3-.7-.1-.6.3-1 .7-1.4.5-.4 1.1-.3 1.6 0l.2.2.4-.3c-.1-.1-.2-.2-.3-.4-.3-.5-.5-1-.1-1.5s1-.8 1.6-.6c.5.1.8.4 1 .8l.2-.2c-.2-.4-.6-.8-1-1-.9-.3-1.8 0-2.4.8-.3.5-.3 1.1-.1 1.5-.5-.1-1.1 0-1.6.3-.4.3-.6.6-.7.9v-.1c-.6-.6-1.6-.7-2.2 0-.4.5-.5 1-.3 1.5-.4-.1-.7 0-1.1.2-.6.3-.9 1-.7 1.7-.5-.3-1.1-.5-1.6-.1-.7.5-1 1.3-.5 2 .7 1 1.4 1.3 2.2 1m.9-1.6l-.1-.2.2.1-.1.1zm.3-2.2c.5-.2 1.1-.1 1.4.3.3.3.4.6.3 1-.2.2-.3.5-.4.7v.5c-.4-.4-.8-.6-1.3-.4-.7-.4-1-1.7 0-2.1m-2.3 1.5c.5-.3 1-.2 1.4 0 .1.2.2.3.4.5v.3c-.4.3-.6.7-.6 1.1-.1.1-.2.1-.4.1-.5 0-.9-.2-1.2-.6-.2-.5-.1-1.1.4-1.4m6.8-3c0 .1.1.2.1.3l-.2.2c-.1-.1-.2-.2-.2-.3-.1-.3.1-.6.3-.8.2-.2.5-.3.8-.2-.5-.2-.9.3-.8.8m2.2-2.4c0 .2.2.4.4.5l.2.1-.3.2c-.3-.1-.5-.3-.6-.6-.1-.3.1-.6.3-.8.2-.2.5-.3.8-.2-.5-.2-.9.3-.8.8m-4 5.9c-.1.2-.1.4 0 .6.1.2.3.3.5.4.2.1.4-.1.6-.2-.1.2-.4.4-.7.4-.4 0-.6-.1-.8-.5-.3-.6.3-1.2.8-1.1-.2 0-.3.2-.4.4m14.7-7.2c2.9 1.2 3.3 2.6 3.4 3v9.9l-17.3 1.6v-1.4c.1 0 .2.1.4.1.5 0 1-.4 1-1s-.4-1-1-1h-.4v-1.5c.1 0 .2.1.4.1.8 0 1.4-.6 1.4-1.4 0-.8-.6-1.4-1.4-1.4-.1 0-.3 0-.4.1v-1.9h.1l5.5-4.4.2.2.3.3c-.1.1-.2.2-.2.5 0 .2.1.3.2.4.2.1.5 0 .6-.1h.1l.2.1.1.2c-.2 0-.4 0-.6.1-.1.1-.4.3-.3.8 0 .2.1.4.3.5.3.1.6.1 1-.1l.1-.1c.1.2.1.4.1.6v.1l-7.1.9V21h.2c.9 0 1.7.8 1.7 1.7 0 .9-.8 1.7-1.7 1.7h-.2v.8h.2c.7 0 1.3.6 1.3 1.3 0 .7-.6 1.3-1.3 1.3h-.2v.7l16.2-1.6v-.7c-.2.3-.6.5-1 .5-.8 0-1.4-.6-1.4-1.4 0-.8.6-1.4 1.4-1.4.3 0 .6.1.8.3-.1-.1-.3-.1-.5-.1-.6 0-1 .5-1 1 0 .6.5 1 1 1 .3 0 .5-.1.7-.2v-8.4l-8.3 1c.1-.5 0-1-.4-1.4 0-.3-.1-.6-.3-.9.2.1.4.1.5.1.2.1.4.1.6.1h.2c.1.1.3.2.5.2.1 0 .2.1.3.1l.1.1.2.1h.2c.1 0 .1-.1.2-.2l-.1-.3c-.2-.2-.2-.6-.1-1v-.5l.2.1h.4c.1.1.2.1.4.2.2 0 .4 0 .6-.1l.2-.1c.2 0 .5-.1.8-.2.2 0 .4 0 .5-.1l.2-.2c0-.1.1-.2.2-.3zM105.9 27c0 .5.4.9 1.2 1.3-1.3-.4-2.1-1-2.1-1.6 0-.8 1.2-1.4 3.1-1.9v.4c-1.4.5-2.2 1.1-2.2 1.8m14-3.4c0 .5.4 1 1 1 .5 0 1-.4 1-1 0-.5-.4-1-1-1s-1 .4-1 1m1.8-.2c0 .3-.3.6-.6.6s-.6-.3-.6-.6.3-.6.6-.6.6.3.6.6m-8.1-3.6c0 .2.2.4.4.4h.4c-.1.3-.4.5-.7.5-.4 0-.8-.3-.8-.8 0-.4.3-.8.8-.8.3 0 .5.2.7.4h-.1c-.1-.1-.2-.2-.3-.2-.3.1-.4.3-.4.5m3.2 1c0 .5.4.8.8.8.3 0 .6-.2.8-.5 0 .5-.5 1-1.1 1-.6 0-1.1-.5-1.1-1.1 0-.6.5-1.1 1.1-1.1h.2c-.4.1-.7.5-.7.9m-1.3 4.2c0 1 .8 1.7 1.7 1.7 1 0 1.7-.8 1.7-1.7 0-1-.8-1.7-1.7-1.7-1 0-1.7.7-1.7 1.7m1.9-1.6c.7 0 1.3.6 1.3 1.3 0 .7-.6 1.3-1.3 1.3-.7 0-1.3-.6-1.3-1.3 0-.7.6-1.3 1.3-1.3m-7.3-2.8c0 .3.2.5.5.5.2 0 .4-.1.4-.3 0 .4-.3.6-.6.6-.4 0-.6-.3-.6-.6 0-.4.3-.6.6-.6h.2c-.3-.1-.5.1-.5.4m11.6-1c0 .7.6 1.3 1.3 1.3.6 0 1.2-.5 1.3-1.1 0 .9-.7 1.6-1.6 1.6-.9 0-1.6-.7-1.6-1.6 0-.9.7-1.6 1.6-1.6.3 0 .5.1.7.2-.1 0-.3-.1-.4-.1-.7 0-1.3.6-1.3 1.3m-10 8c.5 0 1-.4 1-1 0-.5-.4-1-1-1-.5 0-1 .4-1 1 .1.5.5 1 1 1m.3-1.8c.3 0 .6.3.6.6s-.3.6-.6.6-.6-.3-.6-.6.2-.6.6-.6m.8-.9c-.8 0-1.5-.7-1.5-1.5s.7-1.5 1.5-1.5h.3-.1c-.7 0-1.2.5-1.2 1.2s.5 1.2 1.2 1.2 1.2-.5 1.2-1.2V23v.3c.1 1-.6 1.6-1.4 1.6m119.4 10.8c0 .3-.2.6-.6.6h-61.4c-.3 0-.6-.3-.6-.6s.2-.6.6-.6h61.4c.4.1.6.3.6.6"/><path class="st0" d="M231.7 35.7l-61.5.1v-.1l.1-.1 61.4.1h1c0-.6-.5-1.1-1.1-1.1h-61.4c-.6 0-1.1.5-1.1 1.1 0 .6.5 1.1 1.1 1.1h61.4c.6 0 1.1-.5 1.1-1.1h-1zM.6 35.7c0-.3.3-.6.6-.6h59.1c.3 0 .6.3.6.6s-.2.6-.6.6H1.2c-.3 0-.6-.2-.6-.6"/><path class="st0" d="M1.1 35.7l59.2-.1.1.1-.1.1-59.2-.1h-1c0 .6.5 1.1 1.1 1.1h59.1c.6 0 1.1-.5 1.1-1.1 0-.6-.5-1.1-1.1-1.1H1.2c-.6 0-1.1.5-1.1 1.1h1zm227 43.5c0 .3-.3.6-.6.6H4.5c-.3 0-.6-.3-.6-.6s.3-.6.6-.6h223.1c.3 0 .5.3.5.6"/><path class="st0" d="M227.6 79.2l-223.1.1-.1-.1.1-.1 223.1.1h1c0-.6-.5-1.1-1.1-1.1H4.5c-.6 0-1.1.5-1.1 1.1 0 .6.5 1.1 1.1 1.1h223.1c.6 0 1.1-.5 1.1-1.1h-1.1z"/></svg>