<svg id="icon-reset" xmlns="http://www.w3.org/2000/svg" width="64" height="64" viewBox="0 0 64 64"><defs><style>.cls-1{fill:#521364}.cls-2{fill:#fff;fill-rule:evenodd}</style></defs><circle class="cls-1" cx="32" cy="32" r="32"/><path class="cls-2" d="M1366.6 375.247h4.28c.09 0 .12-.018.12-.121v-1.939c0-.08-.01-.11-.1-.109h-8.47a.089.089 0 0 0-.11.109v8.448a.09.09 0 0 0 .11.111q.975-.006 1.95 0c.09 0 .11-.024.11-.118v-5.289a5.328 5.328 0 0 1 .48.374 10.779 10.779 0 0 1 3.84 8.954 10.851 10.851 0 0 1-7.5 9.636 10.5 10.5 0 0 1-2.03.44 10.917 10.917 0 0 1-1.94.06 10.852 10.852 0 0 1-9.51-7 10.852 10.852 0 0 1-.61-2.513 10.419 10.419 0 0 1-.06-1.934 10.836 10.836 0 0 1 7.01-9.5 10.689 10.689 0 0 1 2.52-.611c.4-.048.81-.067 1.22-.078.08 0 .1-.019.1-.1-.02-.66-.03-1.321-.05-1.981 0-.078-.03-.086-.09-.086a13.131 13.131 0 0 0-1.44.092 12.947 12.947 0 0 0-5.49 1.977 12.965 12.965 0 0 0-4.88 5.724 12.356 12.356 0 0 0-.9 2.971 12.74 12.74 0 0 0-.16 3.083 12.933 12.933 0 0 0 1.42 5.126 13.087 13.087 0 0 0 7.68 6.435 13.028 13.028 0 0 0 15.01-5.666 12.982 12.982 0 0 0-1.05-14.969 13.053 13.053 0 0 0-1.37-1.44.705.705 0 0 1-.09-.086z" transform="translate(-1326 -352)"/></svg>