<svg id="_1" data-name="1" xmlns="http://www.w3.org/2000/svg" width="108.624" height="76.94" viewBox="0 0 108.624 76.94"><defs><style>.cls-1,.cls-2{fill:#002b58}.cls-1{fill-rule:evenodd}</style></defs><path id="_50Р" data-name="50Р" class="cls-1" d="M812.328 2225.74v-9.04h-24.236l-2.647 25.07 5.168.54a6.222 6.222 0 0 1 2.411-3.36 9.89 9.89 0 0 1 5.311-1.1 7.273 7.273 0 0 1 6.067 2.81 11.4 11.4 0 0 1 2.19 7.23 11.963 11.963 0 0 1-2.174 7.57 7.34 7.34 0 0 1-6.115 2.76 7.283 7.283 0 0 1-7.721-7.85h-5.61l-.063.19q-.158 6.15 3.7 9.32a14.785 14.785 0 0 0 9.691 3.17q7.092 0 10.795-4.17t3.7-11.05q0-7.065-3.64-11.24t-9.975-4.11a12.2 12.2 0 0 0-4.113.77 13.369 13.369 0 0 0-3.2 1.78l1.481-12.84h13.71l.6 3.55h4.664zm36.623 8.41q0-8.73-3.94-13.42a14.514 14.514 0 0 0-21.368 0q-3.909 4.7-3.908 13.42v10.82q0 8.73 3.939 13.4a14.558 14.558 0 0 0 21.369.02q3.908-4.665 3.908-13.42v-10.82zm-6.209 12.08c0 3.97-.709 6.97-2.127 8.97a7.966 7.966 0 0 1-12.5-.01q-2.175-3.03-2.174-8.96v-13.4c0-3.96.714-6.93 2.143-8.93a7.155 7.155 0 0 1 6.208-3 7.262 7.262 0 0 1 6.288 3c1.439 2 2.159 4.97 2.159 8.93v13.4zm17.366-29.53h-5.138v3.98l5.138.88v36l-5.138.88v3.95h16.484v-3.95l-5.138-.88v-13.5h9.739q7.343 0 11.425-3.73a14.134 14.134 0 0 0 0-19.87q-4.083-3.765-11.425-3.76h-15.947zm6.208 4.86h9.739q4.663 0 6.981 2.54a9.072 9.072 0 0 1 2.316 6.34 8.9 8.9 0 0 1-2.316 6.3q-2.316 2.49-6.981 2.49h-9.739v-17.67z" transform="translate(-782.938 -2216.03)"/><path class="cls-2" d="M72.062 31.97h17v4h-17z"/><path id="на_телефон" data-name="на телефон" class="cls-1" d="M784.378 2281.15v6.14l-1.434.28v1.6h5.267v-1.6l-1.158-.28v-1.96h3.272v1.96l-1.149.28v1.6h5.267v-1.6l-1.434-.28v-6.14l1.434-.27v-1.61h-5.267v1.61l1.149.27v2.13h-3.272v-2.13l1.158-.27v-1.61h-5.267v1.61zm20.8 8.02v-1.6l-.818-.11a3.077 3.077 0 0 1-.032-.39v-4.52a3.053 3.053 0 0 0-1.154-2.56 4.682 4.682 0 0 0-3-.91 6.289 6.289 0 0 0-2.073.34 7.714 7.714 0 0 0-1.686.84l-.01 2.19h2.023l.174-1.06a2.068 2.068 0 0 1 .579-.25 2.909 2.909 0 0 1 .819-.11 1.678 1.678 0 0 1 1.222.4 1.443 1.443 0 0 1 .414 1.1v.97h-1.37a5.934 5.934 0 0 0-3.291.76 2.465 2.465 0 0 0-1.121 2.16 2.79 2.79 0 0 0 .859 2.15 3.282 3.282 0 0 0 2.321.79 3.438 3.438 0 0 0 1.568-.34 3.669 3.669 0 0 0 1.162-.88 4.56 4.56 0 0 0 .322 1.03h3.1zm-6.329-2.07a.987.987 0 0 1-.326-.79 1.227 1.227 0 0 1 .441-.95 1.853 1.853 0 0 1 1.3-.4h1.37v1.51a2.1 2.1 0 0 1-.772.65 2.272 2.272 0 0 1-1.1.27 1.333 1.333 0 0 1-.911-.29zm11.78-7.83v3.37h2.059l.1-1.33h1.664v5.98l-1.425.28v1.6h5.543v-1.6l-1.425-.28v-5.98h1.7l.11 1.33h2.059v-3.37h-10.383zm17.856 9.76a5.378 5.378 0 0 0 1.6-.81l-.726-1.65a6.633 6.633 0 0 1-1.287.56 5.145 5.145 0 0 1-1.48.18 2.057 2.057 0 0 1-1.586-.63 2.581 2.581 0 0 1-.657-1.61l.018-.06h5.933v-1.45a4.654 4.654 0 0 0-1.113-3.27 4.551 4.551 0 0 0-6.393.21 5.417 5.417 0 0 0-1.218 3.64v.36a4.911 4.911 0 0 0 1.287 3.49 4.505 4.505 0 0 0 3.438 1.37 6.8 6.8 0 0 0 2.186-.33zm-1.213-7.38a2.141 2.141 0 0 1 .4 1.36v.24h-3.291l-.028-.05a2.973 2.973 0 0 1 .533-1.49 1.4 1.4 0 0 1 1.177-.57 1.443 1.443 0 0 1 1.211.51zm9.794 7.52h5.543v-1.6l-1.434-.28v-6.14l1.434-.27v-1.61h-10.615v1.61l1.434.27v2.34a9.5 9.5 0 0 1-.276 2.82 1.138 1.138 0 0 1-1.2.75l-.294.01.037 2.1h.423a3.409 3.409 0 0 0 3.084-1.38 8 8 0 0 0 .9-4.3v-2.15h2.39v5.95l-1.434.28v1.6zm13.711-.14a5.371 5.371 0 0 0 1.594-.81l-.726-1.65a6.633 6.633 0 0 1-1.287.56 5.14 5.14 0 0 1-1.48.18 2.054 2.054 0 0 1-1.585-.63 2.577 2.577 0 0 1-.658-1.61l.019-.06h5.938v-1.45a4.658 4.658 0 0 0-1.112-3.27 4.551 4.551 0 0 0-6.393.21 5.412 5.412 0 0 0-1.218 3.64v.36a4.91 4.91 0 0 0 1.286 3.49 4.505 4.505 0 0 0 3.438 1.37 6.812 6.812 0 0 0 2.186-.33zm-1.214-7.38a2.135 2.135 0 0 1 .4 1.36v.24h-3.291l-.027-.05a2.964 2.964 0 0 1 .533-1.49 1.4 1.4 0 0 1 1.176-.57 1.44 1.44 0 0 1 1.211.51zm9.289-6.76h-1.425v1.61l1.425.28v2.54a3.623 3.623 0 0 0-.574-.17 3.24 3.24 0 0 0-.639-.07 3.08 3.08 0 0 0-2.717 1.44 6.7 6.7 0 0 0-.96 3.78v.19a5.95 5.95 0 0 0 .956 3.54 3.124 3.124 0 0 0 2.7 1.33 3.413 3.413 0 0 0 .644-.06 2.777 2.777 0 0 0 .588-.17v1.96l-1.425.28v1.61h5.534v-1.61l-1.425-.28v-1.97a2.976 2.976 0 0 0 .6.18 3.641 3.641 0 0 0 .676.06 3.129 3.129 0 0 0 2.7-1.33 5.936 5.936 0 0 0 .961-3.54v-.19a6.672 6.672 0 0 0-.966-3.78 3.081 3.081 0 0 0-2.711-1.44 3.614 3.614 0 0 0-.676.07 3.25 3.25 0 0 0-.584.19v-4.45h-2.684zm4.936 9.6a4.422 4.422 0 0 1-.4 2.06 1.334 1.334 0 0 1-1.273.76 3.018 3.018 0 0 1-.308-.01 2.233 2.233 0 0 1-.271-.04v-6.05a1.9 1.9 0 0 1 .258-.05 2.75 2.75 0 0 1 .3-.02 1.359 1.359 0 0 1 1.278.88 5.421 5.421 0 0 1 .413 2.28v.19zm-7.142-.19a5.624 5.624 0 0 1 .395-2.29 1.327 1.327 0 0 1 1.278-.87 2.416 2.416 0 0 1 .271.02 2.267 2.267 0 0 1 .262.04v6.07a2.586 2.586 0 0 1-.276.03 2.537 2.537 0 0 1-.275.01 1.32 1.32 0 0 1-1.274-.75 4.663 4.663 0 0 1-.381-2.07v-.19zm10.93.02a5.29 5.29 0 0 0 1.245 3.64 4.943 4.943 0 0 0 6.894 0 5.286 5.286 0 0 0 1.246-3.64v-.19a5.286 5.286 0 0 0-1.246-3.64 4.906 4.906 0 0 0-6.894.01 5.281 5.281 0 0 0-1.245 3.63v.19zm2.684-.19a4.263 4.263 0 0 1 .478-2.15 1.625 1.625 0 0 1 1.526-.84 1.647 1.647 0 0 1 1.535.84 4.2 4.2 0 0 1 .487 2.15v.19a4.259 4.259 0 0 1-.483 2.17 1.842 1.842 0 0 1-3.065 0 4.267 4.267 0 0 1-.478-2.17v-.19zm9.505-2.98v6.14l-1.434.28v1.6h5.269v-1.6l-1.158-.28v-1.96h3.272v1.96l-1.149.28v1.6h5.267v-1.6l-1.434-.28v-6.14l1.434-.27v-1.61h-5.267v1.61l1.149.27v2.13h-3.272v-2.13l1.158-.27v-1.61h-5.267v1.61z" transform="translate(-782.938 -2216.03)"/></svg>