<svg xmlns="http://www.w3.org/2000/svg" width="52" height="73" viewBox="0 0 52 73"><defs><style>.cls-1{fill:#002b58;fill-rule:evenodd}</style></defs><path class="cls-1" d="M40.809 23.37V9.25a6.122 6.122 0 0 0-4.975-6.23 6.625 6.625 0 0 0-1.335-.11q-9.129-.015-18.258-.01H9.024a6.163 6.163 0 0 0-6.049 5.05 6.271 6.271 0 0 0-.1 1.21q-.009 10.86 0 21.7v32.92a6.128 6.128 0 0 0 6.139 6.3c5.248.02 10.5 0 15.744 0 3.337 0 6.674.02 10.011 0a5.9 5.9 0 0 0 4.728-2.35 6 6 0 0 0 1.317-3.83c.007-2.2 0-4.41 0-6.62v-.46c.822 0 1.609-.02 2.394.01a.588.588 0 0 1 .475.65v3.31c0 1.22.034 2.45-.036 3.67a8.809 8.809 0 0 1-2.916 6.15 8.655 8.655 0 0 1-6.089 2.38q-10.12.015-20.241.01H8.957a8.974 8.974 0 0 1-8.553-6.51 10.534 10.534 0 0 1-.366-2.7C.01 55.86.021 47.93.021 40.01V13.52c0-1.71-.058-3.43.043-5.14A8.659 8.659 0 0 1 3.18 2.19 8.35 8.35 0 0 1 8.001.07c.878-.08 1.766-.05 2.65-.06h21.23c1.036 0 2.074-.03 3.109.01a9.078 9.078 0 0 1 8.687 9.01c.012 4.66 0 9.31.011 13.97a.309.309 0 0 1-.38.38c-.816-.02-1.629-.01-2.499-.01zm.78 2.44a16.922 16.922 0 0 1 6.989 1.3 6.344 6.344 0 0 1 2.854 2.28 3.217 3.217 0 0 1 .557 1.71 4.791 4.791 0 0 1-.509 2.89 6.248 6.248 0 0 1-2.51 2.15 14.936 14.936 0 0 1-5.934 1.45 17.912 17.912 0 0 1-6.467-.72 8.859 8.859 0 0 1-3.449-1.83 4.264 4.264 0 0 1-1.438-3.08 4.526 4.526 0 0 1 2.553-4.37 14.21 14.21 0 0 1 5.963-1.71c.551-.05 1.102-.06 1.391-.07zm.276 8.91a15.06 15.06 0 0 0 3.951-.49 10.037 10.037 0 0 0 2.653-1.14 1.662 1.662 0 0 0-.048-2.76 13.707 13.707 0 0 0-2.147-.98 15.564 15.564 0 0 0-6.438-.5 10.64 10.64 0 0 0-4.206 1.26 1.718 1.718 0 0 0-1.071 1.86 1.2 1.2 0 0 0 .455.92 9.663 9.663 0 0 0 1.4.83 13.759 13.759 0 0 0 5.451 1zm-21.586-3.2A17.483 17.483 0 0 1 27.233 33a5.246 5.246 0 0 1 2.8 2.48 4.544 4.544 0 0 1-1.563 5.8 12.345 12.345 0 0 1-5.279 1.91 18.594 18.594 0 0 1-7.989-.48 8.452 8.452 0 0 1-3.956-2.2 3.617 3.617 0 0 1-1.083-2.61 5.593 5.593 0 0 1 .205-2.02 4.875 4.875 0 0 1 1.934-2.28 11.208 11.208 0 0 1 4.338-1.65c1.196-.22 2.423-.29 3.639-.43zm-.014 8.98a13.263 13.263 0 0 0 6.013-1.24 1.844 1.844 0 0 0 1.314-2.04 1.254 1.254 0 0 0-.377-.82 5.921 5.921 0 0 0-2.17-1.17 16.08 16.08 0 0 0-8.345-.33 7.741 7.741 0 0 0-3.2 1.38 1.2 1.2 0 0 0-.51.83 1.654 1.654 0 0 0 .915 1.9c.253.13.486.3.744.41a13.542 13.542 0 0 0 5.616 1.08zm6.457 23.72a4.882 4.882 0 1 1-4.883-4.95 4.932 4.932 0 0 1 4.883 4.95zm-4.916 2.04a2.045 2.045 0 0 0 .065-4.09 2.045 2.045 0 0 0-.065 4.09zM51.828 37.3a4 4 0 0 1-1.562 3.04 10.516 10.516 0 0 1-5.03 2.13 18.11 18.11 0 0 1-7.511-.16 9.271 9.271 0 0 1-4.639-2.3 3.806 3.806 0 0 1-1.19-2.7 2.514 2.514 0 0 1 1.692.34 9.4 9.4 0 0 0 3.958 1.73 18.627 18.627 0 0 0 10.016-.4 13.546 13.546 0 0 0 2.652-1.39 1.39 1.39 0 0 1 .867-.29c.231.02.466 0 .747 0zm-21.57 5.8a3.667 3.667 0 0 1-.649 2.03 6.217 6.217 0 0 1-2.392 1.97 15.6 15.6 0 0 1-7.175 1.46 15.306 15.306 0 0 1-6.554-1.4 6.422 6.422 0 0 1-2.37-1.83 3.618 3.618 0 0 1-.785-2.22 2.416 2.416 0 0 1 1.738.36 9.321 9.321 0 0 0 4 1.72 18.774 18.774 0 0 0 10.08-.48 8.384 8.384 0 0 0 2.666-1.45.759.759 0 0 1 .41-.16c.327-.02.656 0 1.031 0zm1.643-.38c.4 0 .749-.01 1.1 0a.6.6 0 0 1 .283.12 10.462 10.462 0 0 0 4.8 2.07 18.907 18.907 0 0 0 8.721-.28 9.134 9.134 0 0 0 3.513-1.71 1.273 1.273 0 0 1 .9-.2c.186-.01.373 0 .59 0a3 3 0 0 1-.347 1.53 5.388 5.388 0 0 1-2.365 2.3 14.947 14.947 0 0 1-7.24 1.63 16.268 16.268 0 0 1-6.316-1.17 6.5 6.5 0 0 1-2.978-2.23 3.538 3.538 0 0 1-.662-2.06zm-1.643 5.79a3.612 3.612 0 0 1-.682 2.07 6.411 6.411 0 0 1-3.117 2.27 17.167 17.167 0 0 1-12.342 0 6.754 6.754 0 0 1-2.907-2.03 3.939 3.939 0 0 1-.883-2.3 2.545 2.545 0 0 1 1.752.36 10.256 10.256 0 0 0 4.655 1.86 19.1 19.1 0 0 0 8.275-.27 9.75 9.75 0 0 0 3.868-1.85.378.378 0 0 1 .217-.1c.375-.01.75-.01 1.164-.01zm1.643-.37c.416 0 .791 0 1.165.01a.343.343 0 0 1 .188.08 11.064 11.064 0 0 0 4.959 2.11 19.179 19.179 0 0 0 6.923.07 11.757 11.757 0 0 0 5.33-2.16 1.738 1.738 0 0 1 .813-.11c.163-.01.327 0 .534 0a3.112 3.112 0 0 1-.359 1.53 6.245 6.245 0 0 1-3.422 2.8 16.8 16.8 0 0 1-7.846 1.03 13.7 13.7 0 0 1-4.328-.96 7.026 7.026 0 0 1-3.3-2.36 3.618 3.618 0 0 1-.658-2.04z"/></svg>