<svg xmlns="http://www.w3.org/2000/svg" width="76" height="75.03" viewBox="0 0 76 75.03"><defs><style>.cls-1{fill:#fff;fill-rule:evenodd}</style></defs><path class="cls-1" d="M71.95 16.9H61.4a10.381 10.381 0 0 0 2.78-7.07s0-.42-.01-.54a9.494 9.494 0 0 0-4.92-8.02 9.748 9.748 0 0 0-9.64 0l-4.8 2.7A16.717 16.717 0 0 0 38 11.2a16.717 16.717 0 0 0-6.81-7.23l-4.8-2.7a9.748 9.748 0 0 0-9.64 0 9.494 9.494 0 0 0-4.92 8.02c-.01.12-.01.54-.01.54a10.381 10.381 0 0 0 2.78 7.07H4.05A4.059 4.059 0 0 0 0 20.95v9.6a4.05 4.05 0 0 0 4.05 4.04h1.86v36.39a4.054 4.054 0 0 0 4.06 4.05h56.06a4.054 4.054 0 0 0 4.06-4.05V34.59h1.86A4.05 4.05 0 0 0 76 30.55v-9.6a4.059 4.059 0 0 0-4.05-4.05m-25.48-10l4.8-2.7a6.408 6.408 0 0 1 6.33.01 6.178 6.178 0 0 1 3.2 5.2v.42a7.087 7.087 0 0 1-7.09 7.07H39.79a13.339 13.339 0 0 1 6.68-10zm-4.25 64.76h-8.44V20.27h8.44v51.39zM15.2 9.83v-.42a6.178 6.178 0 0 1 3.2-5.2 6.416 6.416 0 0 1 6.33-.01l4.8 2.7a13.339 13.339 0 0 1 6.68 10H22.29a7.087 7.087 0 0 1-7.09-7.07zM3.38 30.55v-9.6a.672.672 0 0 1 .67-.68H30.4v10.95H4.05a.67.67 0 0 1-.67-.67zm5.91 40.43V34.59H30.4v37.07H9.97a.674.674 0 0 1-.68-.68zm57.42 0a.674.674 0 0 1-.68.68H45.6V34.59h21.11v36.39zm5.91-40.43a.67.67 0 0 1-.67.67H45.6V20.27h26.35a.672.672 0 0 1 .67.68v9.6z"/></svg>