<svg xmlns="http://www.w3.org/2000/svg" width="84" height="84" viewBox="0 0 84 84"><defs><style>.cls-1{fill:#fff;fill-rule:evenodd}</style></defs><path class="cls-1" d="M75.29 42.69a1.573 1.573 0 0 0-1.12.46l-4.16 4.16-3.61-13.23 4.24-4.23A52.1 52.1 0 0 0 83.93 7.09a6.433 6.433 0 0 0-1.88-5.14A6.674 6.674 0 0 0 77.57 0a2.115 2.115 0 0 0-.62.07 52.054 52.054 0 0 0-22.79 13.3l-4.23 4.23L36.7 14l4.16-4.16a1.593 1.593 0 0 0 0-2.25 1.624 1.624 0 0 0-1.13-.47 1.588 1.588 0 0 0-1.13.47l-5.44 5.44-.23-.06L11.7 7.18a1.523 1.523 0 0 0-.42-.06 1.588 1.588 0 0 0-1.13.47L3.04 14.7a1.6 1.6 0 0 0 .35 2.52l30.16 16.76-4.87 4.87a44.087 44.087 0 0 0-4.97 5.87l-.27.39H8.98a1.565 1.565 0 0 0-1.11.45L.48 52.82a1.548 1.548 0 0 0-.43 1.51 1.576 1.576 0 0 0 1.07 1.15l15.46 4.79.02.66a6.469 6.469 0 0 0 .64 2.72l.28.59-2.55 2.55a1.591 1.591 0 1 0 2.25 2.25l2.54-2.54.59.28a6.55 6.55 0 0 0 2.73.64l.66.01 4.78 15.45A1.6 1.6 0 0 0 30.05 84a1.55 1.55 0 0 0 1.11-.46l7.43-7.38a1.606 1.606 0 0 0 .47-1.13V60.76l-.03-.56.42-.3a51.9 51.9 0 0 0 6.97-5.83l3.61-3.62 16.76 30.16a1.578 1.578 0 0 0 1.39.82 1.6 1.6 0 0 0 1.13-.46l7.11-7.12a1.592 1.592 0 0 0 .41-1.54l-5.86-21.46 5.45-5.45a1.585 1.585 0 0 0-1.13-2.71zM6.79 15.46l4.96-4.97.24.07 35.34 9.64L35.9 31.63zm10.79 41.78L4.61 53.22l5.02-4.93h11.8l-.7 1.35a50.873 50.873 0 0 0-2.86 6.76zm18.29 17.12l-5.09 5.06-4.02-13.03.82-.3a51.307 51.307 0 0 0 6.93-3.14l1.36-.74v12.15zm8.3-22.55a49.039 49.039 0 0 1-19 11.75l-3.72 1.25 9.99-9.99a1.624 1.624 0 0 0 .47-1.13 1.6 1.6 0 0 0-2.72-1.13l-9.92 9.92 1.13-3.59A40.869 40.869 0 0 1 30.94 41.1l25.47-25.48a48.977 48.977 0 0 1 21-12.37l.18-.05.18.02a3.445 3.445 0 0 1 2.03.98 3.385 3.385 0 0 1 .98 2.07l.02.18-.05.17a48.756 48.756 0 0 1-12.36 20.97zm29.34 20.45l-4.96 4.96-16.18-29.11 11.44-11.44zM69.3 14.7a1.581 1.581 0 0 0-2.25 0l-3.55 3.56a1.591 1.591 0 1 0 2.25 2.25l3.55-3.56a1.576 1.576 0 0 0 0-2.25z"/></svg>