<svg xmlns="http://www.w3.org/2000/svg" width="108" height="88" viewBox="0 0 108 88"><defs><style>.cls-1{fill:#fff;fill-rule:evenodd}</style></defs><path class="cls-1" d="M98.794.01H9.209a9.223 9.223 0 0 0-9.2 9.23v50.22a9.223 9.223 0 0 0 9.2 9.23h89.585a9.224 9.224 0 0 0 9.2-9.23V9.24a9.224 9.224 0 0 0-9.2-9.23zm5.806 59.45a5.821 5.821 0 0 1-5.806 5.83H9.209a5.821 5.821 0 0 1-5.8-5.83V9.24a5.827 5.827 0 0 1 5.8-5.83h89.585a5.827 5.827 0 0 1 5.806 5.83v50.22zM86.2 26.33H21.808a4.685 4.685 0 0 0-4.676 4.69v7.82a4.685 4.685 0 0 0 4.676 4.69H86.2a4.685 4.685 0 0 0 4.676-4.69v-7.82a4.685 4.685 0 0 0-4.676-4.69zm1.285 12.51a1.29 1.29 0 0 1-1.285 1.29H21.808a1.29 1.29 0 0 1-1.286-1.29v-7.82a1.29 1.29 0 0 1 1.286-1.29H86.2a1.29 1.29 0 0 1 1.285 1.29v7.82zM70.719 80.55c-.177-.14-.373-.29-.578-.45-.648-.5-2.368-1.83-2.437-2.41v-6.66h-3.39v6.66c0 2.2 2.172 3.88 3.758 5.11.19.14.37.28.533.41a3.909 3.909 0 0 1 .983 1.32 3.648 3.648 0 0 1-.709.06H39.128a3.656 3.656 0 0 1-.709-.06 3.912 3.912 0 0 1 .984-1.32c.163-.13.343-.27.533-.41 1.586-1.23 3.758-2.91 3.758-5.11v-6.66H40.3v6.65c-.069.59-1.789 1.92-2.437 2.42-.206.16-.4.31-.577.45-1.208.97-2.864 3.25-2.163 5.26.346 1 1.321 2.18 4 2.18H68.87c2.68 0 3.656-1.18 4-2.18.707-2.01-.948-4.29-2.155-5.26z"/></svg>