<svg id="vk" xmlns="http://www.w3.org/2000/svg" width="97.591" height="97" viewBox="0 0 97.591 97"><defs><style>.cls-1{fill:#3b62a3}.cls-2{fill:#fff;fill-rule:evenodd}</style></defs><circle class="cls-1" cx="48.795" cy="48.5" r="48.795"/><path class="cls-2" d="M958.124 4022.92h2.092a1.762 1.762 0 0 0 .955-.42 1.536 1.536 0 0 0 .288-.92s-.041-2.81 1.261-3.23c1.285-.41 2.934 2.72 4.682 3.92a3.3 3.3 0 0 0 2.326.71l4.674-.06s2.445-.15 1.286-2.08c-.1-.16-.676-1.43-3.476-4.03-2.931-2.72-2.538-2.28.993-7 2.15-2.87 3.009-4.62 2.74-5.37-.256-.72-1.837-.53-1.837-.53l-5.262.04a1.134 1.134 0 0 0-.68.12 1.47 1.47 0 0 0-.464.56 30.753 30.753 0 0 1-1.944 4.11c-2.344 3.99-3.281 4.2-3.664 3.95-.891-.58-.668-2.32-.668-3.55 0-3.87.585-5.48-1.139-5.89a9.062 9.062 0 0 0-2.457-.25 11.33 11.33 0 0 0-4.366.45c-.6.29-1.061.95-.78.99a2.322 2.322 0 0 1 1.553.78 5.06 5.06 0 0 1 .521 2.38s.31 4.55-.724 5.12c-.709.38-1.682-.41-3.771-4.02a34.24 34.24 0 0 1-1.879-3.9 1.532 1.532 0 0 0-.434-.59 2.168 2.168 0 0 0-.808-.33l-5 .03a1.687 1.687 0 0 0-1.026.35 1.086 1.086 0 0 0-.02.89s3.915 9.18 8.348 13.8a12.029 12.029 0 0 0 8.681 3.97z" transform="translate(-910.219 -3962)"/></svg>